<svg width="139" height="140" viewBox="0 0 139 140" fill="none" xmlns="http://www.w3.org/2000/svg">
<path fill-rule="evenodd" clip-rule="evenodd" d="M118.865 4.26704C117.987 19.6505 110.635 35.2552 100.02 49.7043C83.9874 71.525 60.509 90.7169 40.347 102.595C27.6758 110.061 17.6197 111.363 4.35376 116.209C3.81653 116.405 3.43319 116.975 3.49789 117.481C3.56107 117.986 4.0502 118.239 4.58592 118.041C18.0071 113.138 28.1753 111.784 40.9951 104.231C61.438 92.1874 85.2362 72.7168 101.494 50.5906C112.403 35.7432 119.917 19.6976 120.821 3.88829C120.852 3.3556 120.44 3.00843 119.9 3.11293C119.36 3.21742 118.896 3.73435 118.865 4.26704Z" fill="url(#paint0_linear_228_188)"/>
<path fill-rule="evenodd" clip-rule="evenodd" d="M1.7707 119.6C1.81857 119.585 2.13672 119.48 2.40525 119.418C3.51877 119.157 5.46476 118.873 7.90436 118.661C16.0864 117.959 29.793 118.073 36.243 123.086C36.6152 123.375 37.2344 123.236 37.6269 122.776C38.0194 122.317 38.0383 121.71 37.6661 121.421C30.9549 116.205 16.7401 115.971 8.22662 116.704C7.08621 116.803 6.04668 116.916 5.14257 117.038C7.62573 115.203 10.1361 113.426 12.6664 111.669C19.9519 106.613 25.5631 100.943 30.7819 93.6559C31.1315 93.1696 31.0801 92.5795 30.6675 92.3437C30.2568 92.1059 29.6367 92.31 29.2887 92.7978C24.2646 99.8109 18.8641 105.273 11.852 110.141C8.54572 112.438 5.26917 114.772 2.04654 117.213C1.72578 117.456 0.897101 118.095 0.790771 118.2C0.183852 118.797 0.418637 119.324 0.477099 119.436C0.5048 119.49 0.894656 120.134 1.7707 119.6ZM1.15551 117.946C1.13152 117.961 1.10597 117.975 1.08003 117.992C1.10056 117.977 1.12611 117.963 1.15551 117.946Z" fill="url(#paint1_linear_228_188)"/>
<defs>
<linearGradient id="paint0_linear_228_188" x1="126.887" y1="9.47949" x2="-77" y2="170" gradientUnits="userSpaceOnUse">
<stop stop-color="#554BF9"/>
<stop offset="0.307288" stop-color="#8F00FF"/>
<stop offset="0.656252" stop-color="#99428E"/>
<stop offset="1" stop-color="#E03C37"/>
</linearGradient>
<linearGradient id="paint1_linear_228_188" x1="38.9418" y1="100.466" x2="10.4896" y2="129.339" gradientUnits="userSpaceOnUse">
<stop stop-color="#554BF9"/>
<stop offset="0.307288" stop-color="#8F00FF"/>
<stop offset="0.656252" stop-color="#99428E"/>
<stop offset="1" stop-color="#E03C37"/>
</linearGradient>
</defs>
</svg>
