<svg width="183" height="182" viewBox="0 0 183 182" fill="none" xmlns="http://www.w3.org/2000/svg">
<path fill-rule="evenodd" clip-rule="evenodd" d="M63.3466 88.7923C58.3714 88.8308 53.188 87.4117 48.0555 84.0499C32.1787 73.65 29.0038 61.072 32.5943 49.0149C37.8377 31.4099 57.7154 14.9532 72.2485 8.57976C72.9361 8.27719 73.9304 8.54068 74.4668 9.16376C75.0069 9.78833 74.8876 10.5398 74.1999 10.8424C60.0936 17.0275 40.7741 32.9802 35.6837 50.0655C32.3874 61.1365 35.1542 72.7037 49.738 82.2546C54.0764 85.0992 58.4526 86.2856 62.6617 86.2619C62.0843 84.0241 61.5925 81.8162 61.1891 79.6427C60.0774 73.6429 60.8224 58.4712 66.3238 49.237C70.2728 42.6142 76.657 39.0465 86.0841 42.9164C91.3235 45.0683 94.2142 48.9436 95.0729 53.6582C96.2583 60.1402 93.5081 68.2995 88.2638 75.1049C83.8989 80.7718 77.8225 85.4947 70.9867 87.5939C69.4825 88.0526 67.9448 88.3921 66.3786 88.5887C75.1131 119.631 99.9421 155.122 130.716 177.967C131.416 178.489 131.568 179.282 131.046 179.739C130.527 180.197 129.536 180.144 128.835 179.624C97.5609 156.405 72.3019 120.37 63.3466 88.7923ZM65.6936 86.0357C65.1568 83.9326 64.698 81.8566 64.3198 79.8119C63.2568 74.0625 63.9708 59.5287 69.2425 50.6815C72.4766 45.2515 77.4179 41.9282 85.1442 45.0996C89.2011 46.7669 91.2742 49.8327 91.9444 53.4835C92.6764 57.4991 91.733 62.1869 89.597 66.7466C86.3541 73.6691 80.3505 80.2893 73.0194 83.7791C70.6979 84.8858 68.2396 85.6724 65.6936 86.0357Z" fill="url(#paint0_linear_228_178)"/>
<path fill-rule="evenodd" clip-rule="evenodd" d="M118.563 132.137C116.574 146.356 122.895 164.772 131.783 179.273C132.192 179.94 131.896 180.633 131.125 180.82C130.355 181.006 129.395 180.618 128.987 179.951C119.82 164.997 113.368 146.007 115.417 131.347C115.508 130.691 116.288 130.334 117.158 130.553C118.024 130.77 118.654 131.481 118.563 132.137Z" fill="url(#paint1_linear_228_178)"/>
<path fill-rule="evenodd" clip-rule="evenodd" d="M128.703 180.107C117.687 169.554 97.8332 160.982 82.0743 158.049C81.2 157.887 80.5039 157.209 80.5264 156.535C80.5451 155.86 81.2673 155.446 82.1416 155.608C98.6508 158.681 119.417 167.713 130.959 178.769C131.572 179.355 131.562 180.133 130.941 180.503C130.316 180.871 129.314 180.695 128.703 180.107Z" fill="url(#paint2_linear_228_178)"/>
<defs>
<linearGradient id="paint0_linear_228_178" x1="57.9687" y1="5.75283" x2="61.0148" y2="259.958" gradientUnits="userSpaceOnUse">
<stop stop-color="#554BF9"/>
<stop offset="0.354164" stop-color="#8F00FF"/>
<stop offset="0.682294" stop-color="#99428E"/>
<stop offset="1" stop-color="#E03C37"/>
</linearGradient>
<linearGradient id="paint1_linear_228_178" x1="139" y1="192" x2="94.4849" y2="129.389" gradientUnits="userSpaceOnUse">
<stop stop-color="#554BF9"/>
<stop offset="0.354164" stop-color="#8F00FF"/>
<stop offset="0.682294" stop-color="#99428E"/>
<stop offset="1" stop-color="#E03C37"/>
</linearGradient>
<linearGradient id="paint2_linear_228_178" x1="143.5" y1="187.5" x2="149.069" y2="170.285" gradientUnits="userSpaceOnUse">
<stop stop-color="#554BF9"/>
<stop offset="0.354164" stop-color="#8F00FF"/>
<stop offset="0.682294" stop-color="#99428E"/>
<stop offset="1" stop-color="#E03C37"/>
</linearGradient>
</defs>
</svg>
