<svg width="38" height="35" viewBox="0 0 38 35" fill="none" xmlns="http://www.w3.org/2000/svg">
<path fill-rule="evenodd" clip-rule="evenodd" d="M20.1495 0.759505C19.7994 0.562589 19.4032 0.459015 19 0.459015C18.5968 0.459015 18.2005 0.562589 17.8504 0.759505L1.62707 9.88757C1.18364 10.1373 0.836449 10.5244 0.639482 10.9885C0.442515 11.4526 0.406807 11.9678 0.53791 12.454C0.669014 12.9402 0.959582 13.3701 1.36444 13.6768C1.76929 13.9836 2.26574 14.1501 2.77661 14.1504V30.1245C2.16194 30.1245 1.57244 30.3649 1.1378 30.7929C0.703162 31.2208 0.458984 31.8013 0.458984 32.4065C0.458984 33.0117 0.703162 33.5922 1.1378 34.0201C1.57244 34.4481 2.16194 34.6885 2.77661 34.6885H35.2233C35.838 34.6885 36.4275 34.4481 36.8621 34.0201C37.2968 33.5922 37.541 33.0117 37.541 32.4065C37.541 31.8013 37.2968 31.2208 36.8621 30.7929C36.4275 30.3649 35.838 30.1245 35.2233 30.1245V14.1504C35.7342 14.1501 36.2306 13.9836 36.6355 13.6768C37.0404 13.3701 37.3309 12.9402 37.462 12.454C37.5931 11.9678 37.5574 11.4526 37.3605 10.9885C37.1635 10.5244 36.8163 10.1373 36.3729 9.88757L20.1495 0.759505V0.759505ZM9.72948 16.4324C9.1148 16.4324 8.52531 16.6728 8.09067 17.1008C7.65603 17.5287 7.41185 18.1092 7.41185 18.7144V25.5605C7.41185 26.1657 7.65603 26.7461 8.09067 27.1741C8.52531 27.602 9.1148 27.8425 9.72948 27.8425C10.3441 27.8425 10.9336 27.602 11.3683 27.1741C11.8029 26.7461 12.0471 26.1657 12.0471 25.5605V18.7144C12.0471 18.1092 11.8029 17.5287 11.3683 17.1008C10.9336 16.6728 10.3441 16.4324 9.72948 16.4324ZM16.6823 18.7144C16.6823 18.1092 16.9265 17.5287 17.3612 17.1008C17.7958 16.6728 18.3853 16.4324 19 16.4324C19.6146 16.4324 20.2041 16.6728 20.6388 17.1008C21.0734 17.5287 21.3176 18.1092 21.3176 18.7144V25.5605C21.3176 26.1657 21.0734 26.7461 20.6388 27.1741C20.2041 27.602 19.6146 27.8425 19 27.8425C18.3853 27.8425 17.7958 27.602 17.3612 27.1741C16.9265 26.7461 16.6823 26.1657 16.6823 25.5605V18.7144ZM28.2705 16.4324C27.6558 16.4324 27.0663 16.6728 26.6317 17.1008C26.197 17.5287 25.9528 18.1092 25.9528 18.7144V25.5605C25.9528 26.1657 26.197 26.7461 26.6317 27.1741C27.0663 27.602 27.6558 27.8425 28.2705 27.8425C28.8851 27.8425 29.4746 27.602 29.9093 27.1741C30.3439 26.7461 30.5881 26.1657 30.5881 25.5605V18.7144C30.5881 18.1092 30.3439 17.5287 29.9093 17.1008C29.4746 16.6728 28.8851 16.4324 28.2705 16.4324Z" fill="url(#paint0_linear_308_214)"/>
<defs>
<linearGradient id="paint0_linear_308_214" x1="19.2687" y1="7.30492" x2="19.2687" y2="34.6885" gradientUnits="userSpaceOnUse">
<stop stop-color="#554BF9"/>
<stop offset="0.249995" stop-color="#8F00FF"/>
<stop offset="0.46354" stop-color="#99428E"/>
<stop offset="0.723962" stop-color="#CC6AC0"/>
<stop offset="1" stop-color="#E03C37"/>
</linearGradient>
</defs>
</svg>
