<svg width="314" height="310" viewBox="0 0 314 310" fill="none" xmlns="http://www.w3.org/2000/svg">
<path d="M246.022 268.423C249.233 272.739 255.309 273.769 259.537 270.445C282.156 252.66 297.353 229.946 306.506 201.79C316.669 170.526 316.377 136.622 305.674 105.181C294.97 73.7392 274.435 46.4613 247.159 27.4523C222.828 10.496 199.074 3.20206 170.205 0.0651296C164.429 -0.56256 159.486 4.04746 159.486 9.85802L159.486 91.3607C159.486 97.0082 164.263 101.527 169.634 103.273C176.313 105.443 182.724 109.503 188.381 113.445C196.863 119.357 203.249 127.839 206.578 137.617C209.906 147.395 211.841 158.89 208.681 168.612C206.563 175.127 203.384 182.308 198.994 188.073C195.561 192.582 194.426 199.085 197.81 203.632L246.022 268.423Z" fill="#FF144E"/>
<path d="M15.9059 120.759C10.5852 119.278 5.03694 122.387 3.91153 127.794C-1.86106 155.527 0.273832 184.401 10.1765 211.085C21.2418 240.903 41.4408 266.464 67.892 284.123C94.3433 301.783 125.696 310.638 157.477 309.425C185.954 308.339 214.804 301.534 238.501 286.014C243.084 283.013 243.854 276.755 240.523 272.405L191.857 208.853C188.472 204.433 182.067 203.689 176.835 205.592C169.529 208.25 161.061 209.057 153.659 209.339C142.962 209.747 134.643 206.767 125.739 200.823C116.836 194.879 109.538 186.181 105.813 176.144C103.264 169.275 101.431 162.018 101.449 154.815C101.462 149.292 98.4505 143.731 93.1299 142.251L15.9059 120.759Z" fill="#FF698E"/>
<path d="M65.3374 42.7009C62.0354 38.2809 55.7493 37.3438 51.5958 40.9754C33.1896 57.0685 19.3017 78.3439 10.5208 101.289C8.50555 106.555 11.6206 112.281 17.047 113.812L93.7806 135.472C98.9852 136.941 104.271 133.934 106.576 129.042C107.939 126.149 109.527 123.485 111.478 121.016C114.905 116.679 115.98 110.49 112.671 106.061L65.3374 42.7009Z" fill="#FFB1C4"/>
<path d="M152.082 9.94403C151.911 4.45905 147.346 0.101189 141.88 0.588279C117.519 2.75909 94.0688 10.9181 73.6225 24.3359C69.0051 27.366 68.1554 33.6694 71.4894 38.0724L118.859 100.628C122.193 105.031 128.512 105.78 133.776 104.108C137.307 102.987 141.054 102.392 144.859 102.057C150.395 101.569 154.796 97.0642 154.623 91.5088L152.082 9.94403Z" fill="white"/>
</svg>
