<svg width="310" height="311" viewBox="0 0 310 311" fill="none" xmlns="http://www.w3.org/2000/svg">
<path d="M125.811 13.9018C124.557 8.5106 127.943 3.10988 133.433 2.27005C163.075 -2.26459 193.577 2.13763 221.01 15.0367C251.508 29.3767 276.478 53.4031 291.988 83.3319C307.499 113.261 312.668 147.391 306.683 180.348C301.298 209.996 287.16 237.18 266.195 258.467C262.315 262.407 255.932 262.002 252.248 257.86L201.637 200.961C197.973 196.84 198.426 190.6 201.811 186.267C207.249 179.306 210.956 171.083 212.557 162.268C214.757 150.158 212.857 137.617 207.158 126.619C201.459 115.622 192.283 106.793 181.077 101.524C172.912 97.6852 164.008 95.8944 155.131 96.2378C149.621 96.4509 144.255 93.1918 143.01 87.8409L125.811 13.9018Z" fill="#FF144E"/>
<path d="M251.202 262.208C255.02 266.185 254.919 272.505 250.704 276.039C236.328 288.095 219.769 297.349 201.871 303.294C180.814 310.289 158.423 312.531 136.295 309.862C114.167 307.192 92.8481 299.677 73.8607 287.852C57.7054 277.79 43.5767 264.82 32.1866 249.638C28.8725 245.22 30.206 239.025 34.8387 236.029L98.9137 194.582C103.553 191.581 109.711 192.982 113.522 196.994C116.743 200.385 120.391 203.365 124.383 205.851C131.218 210.108 138.893 212.813 146.859 213.774C154.825 214.735 162.886 213.928 170.466 211.41C174.854 209.953 179.018 207.943 182.863 205.438C187.503 202.416 193.834 202.461 197.676 206.462L251.202 262.208Z" fill="#FF698E"/>
<path d="M31.4304 230.672C26.7177 233.554 20.5079 232.093 17.9156 227.215C4.49358 201.96 -1.59871 173.436 0.448279 144.925C2.49203 116.459 12.5554 89.3129 29.3762 66.5805C32.6685 62.1311 39.0562 61.6501 43.283 65.2553L102.07 115.398C106.262 118.974 106.679 125.206 103.956 129.969C99.9682 136.943 97.5694 144.77 96.986 152.896C96.402 161.029 97.658 169.166 100.609 176.717C102.617 181.855 101.251 187.977 96.5415 190.857L31.4304 230.672Z" fill="#FFB1C4"/>
<path d="M44.2401 59.8067C40.075 56.1332 39.6349 49.7435 43.5556 45.8489C61.2911 28.2318 83.1918 15.3581 107.269 8.39855C112.527 6.87852 117.848 10.3032 119.08 15.6778L136.266 90.6709C137.511 96.1014 134.066 101.406 128.975 103.567C124.642 105.407 120.573 107.807 116.871 110.705C112.55 114.086 106.32 114.56 102.183 110.911L44.2401 59.8067Z" fill="white"/>
</svg>
