<svg width="144" height="144" viewBox="0 0 144 144" fill="none" xmlns="http://www.w3.org/2000/svg">
<rect width="144" height="144" rx="17" fill="white"/>
<path fill-rule="evenodd" clip-rule="evenodd" d="M74.8536 26.7132C73.9844 26.2243 73.0006 25.9672 71.9996 25.9672C70.9985 25.9672 70.0148 26.2243 69.1455 26.7132L28.8669 49.376C27.7659 49.9961 26.904 50.9571 26.4149 52.1094C25.9259 53.2617 25.8373 54.5408 26.1628 55.7478C26.4883 56.9548 27.2097 58.0222 28.2148 58.7838C29.22 59.5455 30.4525 59.9588 31.7209 59.9595V99.6194C30.1948 99.6194 28.7312 100.216 27.6521 101.279C26.573 102.341 25.9668 103.782 25.9668 105.285C25.9668 106.788 26.573 108.229 27.6521 109.291C28.7312 110.354 30.1948 110.951 31.7209 110.951H112.278C113.804 110.951 115.268 110.354 116.347 109.291C117.426 108.229 118.032 106.788 118.032 105.285C118.032 103.782 117.426 102.341 116.347 101.279C115.268 100.216 113.804 99.6194 112.278 99.6194V59.9595C113.547 59.9588 114.779 59.5455 115.784 58.7838C116.79 58.0222 117.511 56.9548 117.836 55.7478C118.162 54.5408 118.073 53.2617 117.584 52.1094C117.095 50.9571 116.233 49.9961 115.132 49.376L74.8536 26.7132V26.7132ZM48.9832 65.6252C47.4571 65.6252 45.9935 66.2221 44.9144 67.2846C43.8353 68.3472 43.2291 69.7883 43.2291 71.2909V88.288C43.2291 89.7906 43.8353 91.2317 44.9144 92.2942C45.9935 93.3568 47.4571 93.9537 48.9832 93.9537C50.5093 93.9537 51.9728 93.3568 53.052 92.2942C54.1311 91.2317 54.7373 89.7906 54.7373 88.288V71.2909C54.7373 69.7883 54.1311 68.3472 53.052 67.2846C51.9728 66.2221 50.5093 65.6252 48.9832 65.6252ZM66.2455 71.2909C66.2455 69.7883 66.8517 68.3472 67.9308 67.2846C69.0099 66.2221 70.4735 65.6252 71.9996 65.6252C73.5257 65.6252 74.9892 66.2221 76.0683 67.2846C77.1474 68.3472 77.7537 69.7883 77.7537 71.2909V88.288C77.7537 89.7906 77.1474 91.2317 76.0683 92.2942C74.9892 93.3568 73.5257 93.9537 71.9996 93.9537C70.4735 93.9537 69.0099 93.3568 67.9308 92.2942C66.8517 91.2317 66.2455 89.7906 66.2455 88.288V71.2909ZM95.016 65.6252C93.4899 65.6252 92.0263 66.2221 90.9472 67.2846C89.8681 68.3472 89.2619 69.7883 89.2619 71.2909V88.288C89.2619 89.7906 89.8681 91.2317 90.9472 92.2942C92.0263 93.3568 93.4899 93.9537 95.016 93.9537C96.5421 93.9537 98.0056 93.3568 99.0847 92.2942C100.164 91.2317 100.77 89.7906 100.77 88.288V71.2909C100.77 69.7883 100.164 68.3472 99.0847 67.2846C98.0056 66.2221 96.5421 65.6252 95.016 65.6252Z" fill="url(#paint0_linear_329_11)"/>
<defs>
<linearGradient id="paint0_linear_329_11" x1="72.6667" y1="42.9639" x2="72.6667" y2="110.951" gradientUnits="userSpaceOnUse">
<stop stop-color="#554BF9"/>
<stop offset="0.249995" stop-color="#8F00FF"/>
<stop offset="0.46354" stop-color="#99428E"/>
<stop offset="0.723962" stop-color="#CC6AC0"/>
<stop offset="1" stop-color="#E03C37"/>
</linearGradient>
</defs>
</svg>
