<svg width="314" height="310" viewBox="0 0 314 310" fill="none" xmlns="http://www.w3.org/2000/svg">
<path d="M246.021 268.423C249.232 272.739 255.308 273.769 259.536 270.445C282.155 252.659 297.353 229.946 306.505 201.79C316.668 170.526 316.376 136.622 305.673 105.181C294.97 73.7392 274.435 46.4613 247.158 27.4523C222.827 10.4959 199.073 3.20206 170.205 0.0651299C164.428 -0.562562 159.485 4.04746 159.485 9.85802L159.485 91.3607C159.485 97.0082 164.262 101.527 169.633 103.273C176.312 105.443 182.723 109.503 188.38 113.445C196.862 119.357 203.248 127.839 206.577 137.617C209.905 147.395 211.841 158.89 208.68 168.612C206.562 175.127 203.383 182.308 198.994 188.073C195.56 192.582 194.426 199.085 197.809 203.632L246.021 268.423Z" fill="#1652F0"/>
<path d="M15.9059 120.758C10.5852 119.277 5.03694 122.386 3.91153 127.793C-1.86106 155.527 0.273833 184.4 10.1765 211.085C21.2418 240.902 41.4408 266.464 67.892 284.123C94.3433 301.782 125.696 310.637 157.477 309.425C185.954 308.339 214.804 301.534 238.501 286.014C243.084 283.012 243.854 276.754 240.523 272.405L191.857 208.853C188.472 204.433 182.067 203.688 176.835 205.592C169.529 208.25 161.061 209.056 153.659 209.339C142.962 209.747 134.643 206.766 125.739 200.822C116.836 194.878 109.538 186.18 105.813 176.144C103.264 169.274 101.431 162.017 101.449 154.814C101.462 149.291 98.4505 143.731 93.1299 142.25L15.9059 120.758Z" fill="#7295F0"/>
<path d="M65.3364 42.7007C62.0344 38.2807 55.7483 37.3436 51.5948 40.9752C33.1886 57.0683 19.3007 78.3437 10.5198 101.289C8.50455 106.555 11.6196 112.28 17.046 113.812L93.7796 135.472C98.9842 136.941 104.27 133.933 106.575 129.041C107.938 126.149 109.526 123.485 111.477 121.016C114.904 116.679 115.979 110.49 112.67 106.061L65.3364 42.7007Z" fill="#C4D4FF"/>
<path d="M152.083 9.94372C151.912 4.45873 147.346 0.10087 141.88 0.587961C117.52 2.75878 94.0694 10.9178 73.6231 24.3356C69.0057 27.3657 68.156 33.6691 71.49 38.072L118.859 100.628C122.193 105.03 128.512 105.78 133.776 104.108C137.308 102.986 141.055 102.391 144.859 102.056C150.396 101.569 154.796 97.0639 154.623 91.5085L152.083 9.94372Z" fill="#ECEEF3"/>
</svg>
