<svg width="485" height="243" viewBox="0 0 485 243" fill="none" xmlns="http://www.w3.org/2000/svg">
<path d="M476.691 240.556C481.363 240.556 485.166 236.774 484.994 232.113C484.749 225.445 484.212 218.791 483.387 212.169C482.813 207.567 478.495 204.445 473.905 205.151C469.266 205.865 466.116 210.213 466.68 214.865C467.375 220.594 467.837 226.348 468.066 232.113C468.25 236.774 472.02 240.556 476.691 240.556Z" fill="#4DD09A"/>
<path d="M393.631 65.1429C397.013 61.2718 396.533 55.3619 392.435 52.257C367.338 33.2444 338.604 19.2353 307.892 11.0413C303.118 9.7676 298.303 12.7529 297.137 17.5474C295.949 22.4319 298.997 27.3258 303.855 28.6431C331.805 36.2213 357.959 49.0238 380.844 66.3295C384.78 69.3061 390.385 68.8582 393.631 65.1429Z" fill="#7268FF"/>
<path d="M290.263 15.3321C291.448 9.89861 287.998 4.51345 282.511 3.56143C251.711 -1.78226 220.16 -1.10698 189.619 5.54962C184.177 6.73571 180.961 12.2644 182.378 17.6427C183.795 23.0155 189.3 26.2024 194.741 25.0379C222.203 19.16 250.54 18.5534 278.23 23.2505C283.716 24.1812 289.079 20.7611 290.263 15.3321Z" fill="#D3AAFF"/>
<path d="M176.015 22.576C174.57 17.0451 168.929 13.6826 163.437 15.2941C146.204 20.3501 129.607 27.2699 113.953 35.9238C108.801 38.7722 107.301 45.3865 110.486 50.3327C113.576 55.1314 119.929 56.5604 124.933 53.8083C138.736 46.2181 153.34 40.1048 168.49 35.5749C174.063 33.9086 177.484 28.1966 176.015 22.576Z" fill="#EE8EB0"/>
<path d="M107.673 56.5603C104.342 51.9216 97.8863 50.7862 93.3281 54.2307C65.3192 75.3963 42.3926 102.4 26.2362 133.336C10.1452 164.147 1.20769 198.02 0.00620785 232.529C-0.197217 238.372 4.62598 243.062 10.4811 242.999C16.3395 242.937 21.0095 238.14 21.2393 232.295C22.4632 201.163 30.5936 170.621 45.1153 142.815C59.649 114.986 80.1924 90.6483 105.267 71.4702C109.916 67.9146 111.085 61.3123 107.673 56.5603Z" fill="#FF5757"/>
<path d="M407.441 241.887C424.763 241.887 439.072 227.769 436.185 210.716C429.548 171.516 410.501 135.018 381.312 106.559C344.499 70.6675 294.571 50.5041 242.51 50.5041C190.449 50.5041 140.521 70.6675 103.708 106.559C74.5189 135.017 55.4717 171.516 48.8348 210.716C45.9476 227.769 60.2569 241.887 77.5789 241.887L407.441 241.887Z" fill="white"/>
<path d="M470.859 198.495C475.329 197.754 478.349 193.511 477.403 189.087C472.49 166.114 464.04 143.987 452.336 123.449C450.167 119.643 445.297 118.427 441.502 120.623C437.565 122.901 436.298 127.964 438.531 131.923C449.136 150.722 456.825 170.935 461.351 191.909C462.292 196.271 466.451 199.225 470.859 198.495Z" fill="#3AA7A3"/>
<path d="M437.202 112.74C441.5 110.189 442.886 104.606 440.099 100.461C431.982 88.3863 422.746 77.0708 412.509 66.6587C409.105 63.1967 403.538 63.3112 400.135 66.7737C396.643 70.3261 396.763 76.0349 400.239 79.6022C409.344 88.9457 417.582 99.0661 424.856 109.843C427.587 113.891 433 115.234 437.202 112.74Z" fill="#3972DB"/>
<path d="M244.972 29.1297C245.777 27.738 247.789 27.738 248.593 29.1297L259.458 47.9189C260.263 49.3107 259.257 51.0505 257.648 51.0505H235.918C234.308 51.0505 233.302 49.3107 234.107 47.9189L244.972 29.1297Z" fill="#9A9A9A"/>
</svg>
