<svg width="310" height="311" viewBox="0 0 310 311" fill="none" xmlns="http://www.w3.org/2000/svg">
<path d="M125.811 13.9017C124.557 8.5105 127.943 3.10981 133.433 2.27002C159.111 -1.65808 185.503 1.11017 210.034 10.3884C237.729 20.8634 261.843 39.1787 279.404 63.0779C296.966 86.977 307.207 115.416 308.868 144.891C310.338 170.994 305.021 196.9 293.516 220.108C291.055 225.072 284.841 226.656 280.046 223.828L214.531 185.182C209.791 182.386 208.289 176.33 210.154 171.18C212.679 164.204 213.783 156.744 213.36 149.239C212.75 138.408 208.987 127.959 202.534 119.177C196.081 110.395 187.22 103.665 177.044 99.8161C170.006 97.1543 162.552 95.9507 155.131 96.2377C149.621 96.4509 144.255 93.1917 143.01 87.8408L125.811 13.9017Z" fill="#394150"/>
<path d="M278.024 226.607C282.879 229.199 284.765 235.217 281.898 239.885C269.985 259.279 253.774 275.71 234.45 287.895C212.331 301.842 186.898 309.745 160.656 310.825C134.414 311.905 108.269 306.126 84.798 294.056C64.2935 283.511 46.4481 268.484 32.575 250.153C29.2425 245.749 30.5494 239.55 35.1689 236.533L99.0642 194.813C103.691 191.792 109.855 193.167 113.683 197.163C117.908 201.574 122.852 205.272 128.32 208.084C136.77 212.429 146.182 214.51 155.629 214.121C165.076 213.732 174.232 210.887 182.195 205.866C187.307 202.643 191.814 198.594 195.546 193.903C198.999 189.564 205.043 187.627 209.955 190.251L278.024 226.607Z" fill="#6C727F"/>
<path d="M31.4304 230.672C26.7177 233.554 20.5079 232.093 17.9156 227.215C4.49358 201.96 -1.59871 173.436 0.448279 144.925C2.49203 116.459 12.5554 89.3128 29.3762 66.5804C32.6685 62.131 39.0562 61.65 43.283 65.2552L102.07 115.398C106.262 118.974 106.679 125.206 103.956 129.969C99.9682 136.942 97.5694 144.77 96.986 152.896C96.402 161.029 97.658 169.165 100.609 176.717C102.617 181.855 101.251 187.977 96.5415 190.857L31.4304 230.672Z" fill="#D2D5DA"/>
<path d="M44.2403 59.8065C40.0752 56.133 39.635 49.7433 43.5557 45.8487C61.2913 28.2316 83.192 15.3579 107.269 8.39835C112.528 6.87832 117.849 10.303 119.08 15.6776L136.266 90.6707C137.511 96.1012 134.066 101.406 128.976 103.567C124.643 105.407 120.573 107.807 116.871 110.704C112.55 114.086 106.32 114.56 102.183 110.911L44.2403 59.8065Z" fill="white"/>
</svg>
