<svg width="530" height="326" viewBox="0 0 530 326" fill="none" xmlns="http://www.w3.org/2000/svg">
<g filter="url(#filter0_d_139_15)">
<g filter="url(#filter1_i_139_15)">
<path d="M105.566 155.216C107.567 67.5155 180.284 -1.95831 267.984 0.042139C355.685 2.04259 425.159 74.7597 423.158 162.46C421.158 250.161 348.441 319.635 260.74 317.635C173.039 315.634 103.566 242.917 105.566 155.216Z" fill="url(#paint0_radial_139_15)"/>
</g>
<path d="M284.29 31.0045C307.518 34.2682 340.97 51.4022 356.43 70.1982" stroke="white" stroke-width="10" stroke-linecap="round"/>
<circle cx="373.606" cy="90.5658" r="8.97499" fill="white"/>
<g filter="url(#filter2_i_139_15)">
<path d="M109.693 197.871L104.665 155.257C-37.9821 232.74 -33.4568 338.614 146.699 299.926C386.175 248.499 520.118 153.871 525.031 90.3117C528.962 39.4643 419.619 35.1599 377.004 46.7815C377.004 46.7815 400.249 73.9004 407.997 93.2702C451.234 85.7537 456.112 106.754 440.615 118.376C308.45 217.491 89.5001 261.675 72.5767 230.724C66.3558 219.347 93.1011 205.937 109.693 197.871Z" fill="white"/>
</g>
</g>
<defs>
<filter id="filter0_d_139_15" x="0" y="0" width="529.134" height="325.677" filterUnits="userSpaceOnUse" color-interpolation-filters="sRGB">
<feFlood flood-opacity="0" result="BackgroundImageFix"/>
<feColorMatrix in="SourceAlpha" type="matrix" values="0 0 0 0 0 0 0 0 0 0 0 0 0 0 0 0 0 0 127 0" result="hardAlpha"/>
<feOffset dy="4"/>
<feGaussianBlur stdDeviation="2"/>
<feComposite in2="hardAlpha" operator="out"/>
<feColorMatrix type="matrix" values="0 0 0 0 0 0 0 0 0 0 0 0 0 0 0 0 0 0 0.25 0"/>
<feBlend mode="normal" in2="BackgroundImageFix" result="effect1_dropShadow_139_15"/>
<feBlend mode="normal" in="SourceGraphic" in2="effect1_dropShadow_139_15" result="shape"/>
</filter>
<filter id="filter1_i_139_15" x="75.5239" y="-30" width="347.677" height="347.677" filterUnits="userSpaceOnUse" color-interpolation-filters="sRGB">
<feFlood flood-opacity="0" result="BackgroundImageFix"/>
<feBlend mode="normal" in="SourceGraphic" in2="BackgroundImageFix" result="shape"/>
<feColorMatrix in="SourceAlpha" type="matrix" values="0 0 0 0 0 0 0 0 0 0 0 0 0 0 0 0 0 0 127 0" result="hardAlpha"/>
<feOffset dx="-43" dy="-30"/>
<feGaussianBlur stdDeviation="15"/>
<feComposite in2="hardAlpha" operator="arithmetic" k2="-1" k3="1"/>
<feColorMatrix type="matrix" values="0 0 0 0 0.000144704 0 0 0 0 0.000144704 0 0 0 0 0.000144704 0 0 0 0.44 0"/>
<feBlend mode="normal" in2="shape" result="effect1_innerShadow_139_15"/>
</filter>
<filter id="filter2_i_139_15" x="3" y="41.4344" width="522.134" height="269.73" filterUnits="userSpaceOnUse" color-interpolation-filters="sRGB">
<feFlood flood-opacity="0" result="BackgroundImageFix"/>
<feBlend mode="normal" in="SourceGraphic" in2="BackgroundImageFix" result="shape"/>
<feColorMatrix in="SourceAlpha" type="matrix" values="0 0 0 0 0 0 0 0 0 0 0 0 0 0 0 0 0 0 127 0" result="hardAlpha"/>
<feOffset dx="-1" dy="3"/>
<feGaussianBlur stdDeviation="5.5"/>
<feComposite in2="hardAlpha" operator="arithmetic" k2="-1" k3="1"/>
<feColorMatrix type="matrix" values="0 0 0 0 0 0 0 0 0 0 0 0 0 0 0 0 0 0 0.25 0"/>
<feBlend mode="normal" in2="shape" result="effect1_innerShadow_139_15"/>
</filter>
<radialGradient id="paint0_radial_139_15" cx="0" cy="0" r="1" gradientUnits="userSpaceOnUse" gradientTransform="translate(205.529 29.3727) rotate(45.4719) scale(350.211)">
<stop stop-color="#554BF9"/>
<stop offset="0.513998" stop-color="#8F00FF"/>
<stop offset="0.785004" stop-color="#99428E"/>
<stop offset="1" stop-color="#E03C37"/>
</radialGradient>
</defs>
</svg>
