<svg width="427" height="414" viewBox="0 0 427 414" fill="none" xmlns="http://www.w3.org/2000/svg">
<g clip-path="url(#clip0_138_14)">
<g filter="url(#filter0_di_138_14)">
<rect x="24" y="17" width="380" height="380" rx="82" fill="#F1E0FF"/>
</g>
<g filter="url(#filter1_i_138_14)">
<path d="M112.241 200.119C113.467 146.374 158.029 103.8 211.773 105.026C265.518 106.252 308.092 150.814 306.866 204.558C305.64 258.302 261.078 300.877 207.334 299.651C153.59 298.425 111.015 253.863 112.241 200.119Z" fill="url(#paint0_radial_138_14)"/>
</g>
<path d="M221.766 124C236 126 256.5 136.5 265.974 148.018" stroke="white" stroke-width="10" stroke-linecap="round"/>
<circle cx="276.5" cy="160.5" r="5.5" fill="white"/>
<g filter="url(#filter2_i_138_14)">
<path d="M114.77 226.258L111.689 200.143C24.2728 247.626 27.0459 312.507 137.448 288.799C284.202 257.283 366.284 199.294 369.295 160.344C371.704 129.184 304.697 126.546 278.582 133.668C278.582 133.668 292.827 150.287 297.575 162.157C324.071 157.551 327.061 170.421 317.564 177.543C236.571 238.281 102.396 265.358 92.0248 246.391C88.2125 239.419 104.602 231.201 114.77 226.258Z" fill="white"/>
</g>
</g>
<defs>
<filter id="filter0_di_138_14" x="9" y="2" width="434" height="434" filterUnits="userSpaceOnUse" color-interpolation-filters="sRGB">
<feFlood flood-opacity="0" result="BackgroundImageFix"/>
<feColorMatrix in="SourceAlpha" type="matrix" values="0 0 0 0 0 0 0 0 0 0 0 0 0 0 0 0 0 0 127 0" result="hardAlpha"/>
<feOffset dx="12" dy="12"/>
<feGaussianBlur stdDeviation="13.5"/>
<feComposite in2="hardAlpha" operator="out"/>
<feColorMatrix type="matrix" values="0 0 0 0 0 0 0 0 0 0 0 0 0 0 0 0 0 0 0.13 0"/>
<feBlend mode="normal" in2="BackgroundImageFix" result="effect1_dropShadow_138_14"/>
<feBlend mode="normal" in="SourceGraphic" in2="effect1_dropShadow_138_14" result="shape"/>
<feColorMatrix in="SourceAlpha" type="matrix" values="0 0 0 0 0 0 0 0 0 0 0 0 0 0 0 0 0 0 127 0" result="hardAlpha"/>
<feOffset dx="-8" dy="-4"/>
<feGaussianBlur stdDeviation="7.5"/>
<feComposite in2="hardAlpha" operator="arithmetic" k2="-1" k3="1"/>
<feColorMatrix type="matrix" values="0 0 0 0 0 0 0 0 0 0 0 0 0 0 0 0 0 0 0.25 0"/>
<feBlend mode="normal" in2="shape" result="effect2_innerShadow_138_14"/>
</filter>
<filter id="filter1_i_138_14" x="82.2153" y="75" width="224.677" height="224.677" filterUnits="userSpaceOnUse" color-interpolation-filters="sRGB">
<feFlood flood-opacity="0" result="BackgroundImageFix"/>
<feBlend mode="normal" in="SourceGraphic" in2="BackgroundImageFix" result="shape"/>
<feColorMatrix in="SourceAlpha" type="matrix" values="0 0 0 0 0 0 0 0 0 0 0 0 0 0 0 0 0 0 127 0" result="hardAlpha"/>
<feOffset dx="-43" dy="-30"/>
<feGaussianBlur stdDeviation="15"/>
<feComposite in2="hardAlpha" operator="arithmetic" k2="-1" k3="1"/>
<feColorMatrix type="matrix" values="0 0 0 0 0.000144704 0 0 0 0 0.000144704 0 0 0 0 0.000144704 0 0 0 0.44 0"/>
<feBlend mode="normal" in2="shape" result="effect1_innerShadow_138_14"/>
</filter>
<filter id="filter2_i_138_14" x="49" y="130.392" width="320.358" height="166.456" filterUnits="userSpaceOnUse" color-interpolation-filters="sRGB">
<feFlood flood-opacity="0" result="BackgroundImageFix"/>
<feBlend mode="normal" in="SourceGraphic" in2="BackgroundImageFix" result="shape"/>
<feColorMatrix in="SourceAlpha" type="matrix" values="0 0 0 0 0 0 0 0 0 0 0 0 0 0 0 0 0 0 127 0" result="hardAlpha"/>
<feOffset dx="-1" dy="3"/>
<feGaussianBlur stdDeviation="5.5"/>
<feComposite in2="hardAlpha" operator="arithmetic" k2="-1" k3="1"/>
<feColorMatrix type="matrix" values="0 0 0 0 0 0 0 0 0 0 0 0 0 0 0 0 0 0 0.25 0"/>
<feBlend mode="normal" in2="shape" result="effect1_innerShadow_138_14"/>
</filter>
<radialGradient id="paint0_radial_138_14" cx="0" cy="0" r="1" gradientUnits="userSpaceOnUse" gradientTransform="translate(173.5 123) rotate(45.4719) scale(214.614)">
<stop stop-color="#554BF9"/>
<stop offset="0.513998" stop-color="#8F00FF"/>
<stop offset="0.785004" stop-color="#99428E"/>
<stop offset="1" stop-color="#E03C37"/>
</radialGradient>
<clipPath id="clip0_138_14">
<rect width="427" height="414" fill="white"/>
</clipPath>
</defs>
</svg>
