<svg width="112" height="106" viewBox="0 0 112 106" fill="none" xmlns="http://www.w3.org/2000/svg">
<path d="M54.8053 37.8545C34.3425 37.8545 31.2763 63.1153 45.3785 70.4981C46.3053 70.9833 46.8438 72.033 46.5568 73.0407L38.1766 102.47C37.8847 103.495 36.8274 104.118 35.7982 103.85C-12.8305 91.1901 -11.0318 2 54.579 2C122.762 2 125.268 94.6694 77.2287 103.954C76.2733 104.166 75.3014 103.621 74.9622 102.701L64.0534 73.1182C63.6727 72.0858 64.1983 70.9504 65.1415 70.3867C76.9178 63.3497 75.0823 37.8545 54.8053 37.8545Z" stroke="url(#paint0_linear_226_45)" stroke-width="4"/>
<defs>
<linearGradient id="paint0_linear_226_45" x1="54.5182" y1="1.05723" x2="56.0267" y2="104" gradientUnits="userSpaceOnUse">
<stop stop-color="#554BF9"/>
<stop offset="0.317705" stop-color="#8F00FF"/>
<stop offset="0.677558" stop-color="#99428E"/>
<stop offset="1" stop-color="#E03C37"/>
</linearGradient>
</defs>
</svg>
