<svg width="608" height="290" viewBox="0 0 608 290" fill="none" xmlns="http://www.w3.org/2000/svg">
<path d="M188.653 71.3912C186.737 68.0334 182.455 66.856 179.155 68.8688C145.587 89.3399 117.514 117.746 97.4328 151.632C77.3518 185.517 65.9142 223.782 64.0757 263.056C63.895 266.918 66.9837 270.108 70.8491 270.176L207.51 272.594C211.375 272.663 214.536 269.579 214.904 265.731C216.163 252.59 220.303 239.857 227.062 228.452C233.821 217.047 243.002 207.302 253.924 199.888C257.123 197.716 258.31 193.463 256.394 190.106L188.653 71.3912Z" fill="#E03C37"/>
<path d="M258.999 45.1414C258.247 41.3493 254.561 38.8744 250.792 39.7364C230.694 44.3332 211.269 51.494 192.996 61.0429C189.57 62.8334 188.372 67.1089 190.261 70.4817L257.061 189.728C258.951 193.101 263.207 194.277 266.716 192.655C271.052 190.652 275.541 188.997 280.14 187.706C283.862 186.662 286.337 183.005 285.585 179.213L258.999 45.1414Z" fill="#CC6AC0"/>
<path d="M369.081 49.7991C370.15 46.084 368.008 42.1948 364.263 41.2337C332.705 33.134 299.83 31.5274 267.633 36.5114C263.812 37.1028 261.301 40.7645 262.003 44.5662L286.832 178.974C287.534 182.776 291.185 185.26 295.029 184.855C304.212 183.889 313.488 184.342 322.533 186.199C326.32 186.977 330.195 184.861 331.265 181.146L369.081 49.7991Z" fill="#99428E"/>
<path d="M466.017 105.56C468.691 102.767 468.601 98.3279 465.733 95.7366C440.921 73.326 411.71 56.3313 379.965 45.8379C376.294 44.6246 372.39 46.7409 371.284 50.4453L332.179 181.414C331.073 185.118 333.192 188.992 336.799 190.383C345.711 193.818 354.019 198.652 361.41 204.701C364.401 207.149 368.816 207.077 371.49 204.284L466.017 105.56Z" fill="#8F00FF"/>
<path d="M511.905 166.874C515.338 165.097 516.689 160.867 514.812 157.487C504.731 139.334 492.343 122.563 477.957 107.59C475.279 104.803 470.839 104.85 468.13 107.609L372.367 205.134C369.658 207.893 369.722 212.308 372.261 215.223C375.435 218.865 378.31 222.758 380.858 226.862C382.897 230.146 387.099 231.505 390.532 229.728L511.905 166.874Z" fill="#554BF9"/>
<path d="M534.669 234.581C538.479 233.924 541.045 230.3 540.277 226.511C536.512 207.934 530.565 189.867 522.56 172.685C520.927 169.181 516.711 167.79 513.255 169.524L391.092 230.827C387.637 232.561 386.269 236.759 387.729 240.339C389.298 244.187 390.6 248.14 391.623 252.169C392.574 255.916 396.168 258.481 399.978 257.824L534.669 234.581Z" fill="#3AA7A3"/>
<path d="M540.072 274.309C542.833 274.309 545.077 272.07 545.02 269.309C544.829 260.107 544.11 250.924 542.866 241.804C542.493 239.068 539.928 237.205 537.2 237.635L398.233 259.531C395.505 259.961 393.657 262.52 393.934 265.268C394.07 266.613 394.176 267.961 394.251 269.312C394.405 272.069 396.629 274.309 399.39 274.309H540.072Z" fill="#4DD09A"/>
<path d="M117.989 189.472L121.151 198.067L124.394 189.472H126.179L121.934 200.122H120.344L116.204 189.472H117.989Z" fill="white"/>
<path d="M135.234 198.637L135.225 200.122H127.92L127.98 189.472H135.15L135.141 190.957H129.651L129.634 193.987H134.389L134.382 195.382H129.627L129.609 198.637H135.234Z" fill="white"/>
<path d="M137.458 200.122L137.518 189.472H142.153C142.633 189.472 143.072 189.572 143.471 189.772C143.87 189.972 144.213 190.237 144.502 190.567C144.8 190.897 145.028 191.267 145.185 191.677C145.353 192.087 145.436 192.507 145.433 192.937C145.431 193.407 145.343 193.857 145.171 194.287C144.998 194.717 144.751 195.087 144.43 195.397C144.118 195.707 143.752 195.932 143.331 196.072L145.813 200.122H143.923L141.634 196.417H139.159L139.138 200.122H137.458ZM139.167 194.932H142.107C142.417 194.932 142.693 194.842 142.934 194.662C143.175 194.482 143.366 194.242 143.508 193.942C143.65 193.632 143.721 193.297 143.723 192.937C143.725 192.567 143.647 192.237 143.489 191.947C143.331 191.647 143.122 191.407 142.863 191.227C142.614 191.047 142.339 190.957 142.039 190.957H139.189L139.167 194.932Z" fill="white"/>
<path d="M148.202 189.472L151.113 194.767L154.112 189.472H155.957L151.944 196.312L151.923 200.122H150.243L150.264 196.282L146.357 189.472H148.202Z" fill="white"/>
<path d="M161.371 200.122L161.43 189.472H165.9C166.38 189.472 166.819 189.572 167.218 189.772C167.617 189.972 167.965 190.237 168.264 190.567C168.562 190.897 168.79 191.267 168.947 191.677C169.105 192.087 169.183 192.507 169.18 192.937C169.177 193.527 169.039 194.092 168.766 194.632C168.503 195.162 168.126 195.592 167.634 195.922C167.152 196.252 166.591 196.417 165.951 196.417H163.071L163.051 200.122H161.371ZM163.079 194.932H165.854C166.174 194.932 166.455 194.847 166.696 194.677C166.937 194.497 167.123 194.257 167.255 193.957C167.397 193.657 167.468 193.317 167.47 192.937C167.473 192.547 167.395 192.202 167.236 191.902C167.078 191.602 166.869 191.372 166.61 191.212C166.361 191.042 166.086 190.957 165.786 190.957H163.101L163.079 194.932Z" fill="white"/>
<path d="M175.641 200.197C174.871 200.197 174.177 200.047 173.558 199.747C172.94 199.447 172.407 199.042 171.96 198.532C171.513 198.012 171.166 197.432 170.92 196.792C170.683 196.142 170.567 195.477 170.571 194.797C170.575 194.087 170.709 193.412 170.972 192.772C171.236 192.122 171.599 191.547 172.062 191.047C172.525 190.537 173.067 190.137 173.688 189.847C174.32 189.547 175.001 189.397 175.731 189.397C176.491 189.397 177.18 189.552 177.798 189.862C178.427 190.172 178.959 190.587 179.396 191.107C179.843 191.627 180.185 192.207 180.422 192.847C180.668 193.487 180.79 194.142 180.786 194.812C180.782 195.522 180.648 196.202 180.384 196.852C180.131 197.492 179.773 198.067 179.31 198.577C178.847 199.077 178.3 199.472 177.668 199.762C177.047 200.052 176.371 200.197 175.641 200.197ZM172.281 194.797C172.278 195.297 172.355 195.782 172.513 196.252C172.67 196.722 172.893 197.142 173.181 197.512C173.479 197.872 173.837 198.157 174.256 198.367C174.675 198.577 175.144 198.682 175.664 198.682C176.204 198.682 176.685 198.572 177.106 198.352C177.527 198.132 177.879 197.837 178.161 197.467C178.453 197.087 178.675 196.667 178.828 196.207C178.981 195.737 179.058 195.267 179.061 194.797C179.064 194.297 178.986 193.817 178.829 193.357C178.681 192.887 178.459 192.472 178.161 192.112C177.863 191.742 177.504 191.452 177.086 191.242C176.677 191.032 176.217 190.927 175.707 190.927C175.167 190.927 174.687 191.037 174.266 191.257C173.844 191.477 173.488 191.772 173.196 192.142C172.904 192.512 172.676 192.927 172.514 193.387C172.361 193.847 172.284 194.317 172.281 194.797Z" fill="white"/>
<path d="M187.42 200.197C186.65 200.197 185.956 200.047 185.338 199.747C184.719 199.447 184.187 199.042 183.739 198.532C183.292 198.012 182.946 197.432 182.699 196.792C182.463 196.142 182.346 195.477 182.35 194.797C182.354 194.087 182.488 193.412 182.751 192.772C183.015 192.122 183.378 191.547 183.841 191.047C184.304 190.537 184.846 190.137 185.468 189.847C186.099 189.547 186.78 189.397 187.51 189.397C188.27 189.397 188.959 189.552 189.578 189.862C190.206 190.172 190.739 190.587 191.176 191.107C191.623 191.627 191.965 192.207 192.201 192.847C192.447 193.487 192.569 194.142 192.565 194.812C192.561 195.522 192.427 196.202 192.164 196.852C191.91 197.492 191.552 198.067 191.089 198.577C190.626 199.077 190.079 199.472 189.448 199.762C188.826 200.052 188.15 200.197 187.42 200.197ZM184.06 194.797C184.057 195.297 184.135 195.782 184.292 196.252C184.449 196.722 184.672 197.142 184.96 197.512C185.258 197.872 185.617 198.157 186.035 198.367C186.454 198.577 186.924 198.682 187.444 198.682C187.984 198.682 188.464 198.572 188.885 198.352C189.307 198.132 189.658 197.837 189.94 197.467C190.232 197.087 190.455 196.667 190.607 196.207C190.76 195.737 190.838 195.267 190.84 194.797C190.843 194.297 190.766 193.817 190.608 193.357C190.461 192.887 190.238 192.472 189.94 192.112C189.642 191.742 189.284 191.452 188.865 191.242C188.456 191.032 187.997 190.927 187.487 190.927C186.947 190.927 186.466 191.037 186.045 191.257C185.624 191.477 185.267 191.772 184.975 192.142C184.683 192.512 184.456 192.927 184.293 193.387C184.14 193.847 184.063 194.317 184.06 194.797Z" fill="white"/>
<path d="M194.775 200.122L194.834 189.472H199.469C199.949 189.472 200.388 189.572 200.787 189.772C201.186 189.972 201.53 190.237 201.818 190.567C202.116 190.897 202.344 191.267 202.502 191.677C202.67 192.087 202.752 192.507 202.75 192.937C202.747 193.407 202.66 193.857 202.487 194.287C202.315 194.717 202.068 195.087 201.746 195.397C201.434 195.707 201.068 195.932 200.647 196.072L203.13 200.122H201.24L198.95 196.417H196.475L196.455 200.122H194.775ZM196.484 194.932H199.424C199.734 194.932 200.009 194.842 200.25 194.662C200.491 194.482 200.683 194.242 200.824 193.942C200.966 193.632 201.038 193.297 201.04 192.937C201.042 192.567 200.964 192.237 200.805 191.947C200.647 191.647 200.438 191.407 200.179 191.227C199.93 191.047 199.656 190.957 199.356 190.957H196.506L196.484 194.932Z" fill="white"/>
<path d="M298.33 101.743L298.389 91.0934H305.484L305.475 92.5784H300.06L300.043 95.7583H304.573L304.565 97.1533H300.035L300.01 101.743H298.33Z" fill="white"/>
<path d="M309.859 91.0934H311.449L315.53 101.743H313.76L312.651 98.8483H308.541L307.415 101.743H305.63L309.859 91.0934ZM312.328 97.6033L310.644 92.9384L308.848 97.6033H312.328Z" fill="white"/>
<path d="M317.347 101.743L317.406 91.0934H319.086L319.027 101.743H317.347Z" fill="white"/>
<path d="M321.934 101.743L321.993 91.0934H326.628C327.108 91.0934 327.548 91.1934 327.947 91.3934C328.345 91.5934 328.689 91.8584 328.977 92.1884C329.275 92.5184 329.503 92.8884 329.661 93.2984C329.829 93.7084 329.911 94.1284 329.909 94.5584C329.906 95.0284 329.819 95.4783 329.647 95.9083C329.474 96.3383 329.227 96.7083 328.905 97.0183C328.594 97.3283 328.227 97.5533 327.807 97.6933L330.289 101.743H328.399L326.11 98.0383H323.635L323.614 101.743H321.934ZM323.643 96.5533H326.583C326.893 96.5533 327.168 96.4633 327.409 96.2833C327.65 96.1033 327.842 95.8633 327.983 95.5633C328.125 95.2534 328.197 94.9184 328.199 94.5584C328.201 94.1884 328.123 93.8584 327.965 93.5684C327.806 93.2684 327.598 93.0284 327.339 92.8484C327.09 92.6684 326.815 92.5784 326.515 92.5784H323.665L323.643 96.5533Z" fill="white"/>
<path d="M376.417 131.066C375.717 131.066 375.063 130.921 374.454 130.631C373.846 130.341 373.313 129.941 372.856 129.431C372.409 128.921 372.057 128.341 371.801 127.691C371.554 127.041 371.433 126.351 371.437 125.621C371.441 124.891 371.57 124.206 371.824 123.566C372.087 122.926 372.445 122.356 372.898 121.856C373.361 121.356 373.898 120.966 374.51 120.686C375.131 120.406 375.807 120.266 376.537 120.266C377.547 120.266 378.396 120.481 379.083 120.911C379.781 121.331 380.303 121.891 380.649 122.591L379.354 123.521C379.077 122.941 378.68 122.506 378.161 122.216C377.653 121.926 377.094 121.781 376.484 121.781C375.984 121.781 375.528 121.886 375.117 122.096C374.706 122.306 374.349 122.596 374.047 122.966C373.755 123.326 373.533 123.741 373.38 124.211C373.227 124.671 373.15 125.156 373.147 125.666C373.144 126.206 373.226 126.711 373.394 127.181C373.561 127.651 373.799 128.066 374.107 128.426C374.415 128.776 374.778 129.051 375.197 129.251C375.616 129.451 376.07 129.551 376.56 129.551C377.14 129.551 377.691 129.406 378.213 129.116C378.744 128.816 379.242 128.371 379.705 127.781L379.696 129.491C378.76 130.541 377.667 131.066 376.417 131.066ZM379.545 126.851H377.31L377.317 125.606H380.962L380.932 130.991H379.522L379.545 126.851Z" fill="white"/>
<path d="M387.773 131.066C387.003 131.066 386.309 130.916 385.691 130.616C385.072 130.316 384.54 129.911 384.092 129.401C383.645 128.881 383.299 128.301 383.052 127.661C382.816 127.011 382.699 126.346 382.703 125.666C382.707 124.956 382.841 124.281 383.104 123.641C383.368 122.991 383.731 122.416 384.194 121.916C384.657 121.406 385.199 121.006 385.821 120.716C386.452 120.416 387.133 120.266 387.863 120.266C388.623 120.266 389.312 120.421 389.931 120.731C390.559 121.041 391.092 121.456 391.529 121.976C391.976 122.496 392.318 123.076 392.554 123.716C392.8 124.356 392.922 125.011 392.918 125.681C392.914 126.391 392.78 127.071 392.517 127.721C392.263 128.361 391.905 128.936 391.442 129.446C390.979 129.946 390.432 130.341 389.801 130.631C389.179 130.921 388.503 131.066 387.773 131.066ZM384.413 125.666C384.41 126.166 384.488 126.651 384.645 127.121C384.803 127.591 385.025 128.011 385.313 128.381C385.611 128.741 385.97 129.026 386.388 129.236C386.807 129.446 387.277 129.551 387.797 129.551C388.337 129.551 388.817 129.441 389.238 129.221C389.66 129.001 390.011 128.706 390.293 128.336C390.586 127.956 390.808 127.536 390.96 127.076C391.113 126.606 391.191 126.136 391.193 125.666C391.196 125.166 391.119 124.686 390.961 124.226C390.814 123.756 390.591 123.341 390.293 122.981C389.995 122.611 389.637 122.321 389.218 122.111C388.809 121.901 388.35 121.796 387.84 121.796C387.3 121.796 386.819 121.906 386.398 122.126C385.977 122.346 385.62 122.641 385.328 123.011C385.036 123.381 384.809 123.796 384.646 124.256C384.494 124.716 384.416 125.186 384.413 125.666Z" fill="white"/>
<path d="M399.553 131.066C398.783 131.066 398.088 130.916 397.47 130.616C396.852 130.316 396.319 129.911 395.872 129.401C395.425 128.881 395.078 128.301 394.831 127.661C394.595 127.011 394.479 126.346 394.483 125.666C394.486 124.956 394.62 124.281 394.884 123.641C395.147 122.991 395.511 122.416 395.973 121.916C396.436 121.406 396.978 121.006 397.6 120.716C398.232 120.416 398.912 120.266 399.642 120.266C400.402 120.266 401.092 120.421 401.71 120.731C402.338 121.041 402.871 121.456 403.308 121.976C403.755 122.496 404.097 123.076 404.333 123.716C404.58 124.356 404.701 125.011 404.697 125.681C404.694 126.391 404.56 127.071 404.296 127.721C404.043 128.361 403.684 128.936 403.222 129.446C402.759 129.946 402.212 130.341 401.58 130.631C400.958 130.921 400.283 131.066 399.553 131.066ZM396.193 125.666C396.19 126.166 396.267 126.651 396.424 127.121C396.582 127.591 396.804 128.011 397.092 128.381C397.39 128.741 397.749 129.026 398.168 129.236C398.587 129.446 399.056 129.551 399.576 129.551C400.116 129.551 400.597 129.441 401.018 129.221C401.439 129.001 401.791 128.706 402.073 128.336C402.365 127.956 402.587 127.536 402.74 127.076C402.892 126.606 402.97 126.136 402.973 125.666C402.975 125.166 402.898 124.686 402.741 124.226C402.593 123.756 402.37 123.341 402.072 122.981C401.774 122.611 401.416 122.321 400.997 122.111C400.588 121.901 400.129 121.796 399.619 121.796C399.079 121.796 398.598 121.906 398.177 122.126C397.756 122.346 397.399 122.641 397.107 123.011C396.815 123.381 396.588 123.796 396.425 124.256C396.273 124.716 396.195 125.186 396.193 125.666Z" fill="white"/>
<path d="M406.907 130.991L406.966 120.341H410.746C411.896 120.341 412.855 120.581 413.622 121.061C414.39 121.531 414.961 122.171 415.337 122.981C415.722 123.781 415.912 124.671 415.907 125.651C415.901 126.731 415.681 127.671 415.246 128.471C414.822 129.271 414.218 129.891 413.436 130.331C412.653 130.771 411.737 130.991 410.687 130.991H406.907ZM414.197 125.651C414.201 124.901 414.065 124.241 413.788 123.671C413.521 123.091 413.129 122.641 412.61 122.321C412.102 121.991 411.478 121.826 410.738 121.826H408.638L408.595 129.506H410.695C411.445 129.506 412.076 129.336 412.588 128.996C413.11 128.656 413.508 128.196 413.781 127.616C414.054 127.036 414.193 126.381 414.197 125.651Z" fill="white"/>
<path d="M435.86 156.679L439.022 165.274L442.265 156.679H444.05L439.806 167.329H438.216L434.075 156.679H435.86Z" fill="white"/>
<path d="M453.105 165.844L453.097 167.329H445.792L445.851 156.679H453.021L453.012 158.164H447.522L447.506 161.194H452.261L452.253 162.589H447.498L447.48 165.844H453.105Z" fill="white"/>
<path d="M455.33 167.329L455.389 156.679H460.024C460.504 156.679 460.943 156.779 461.342 156.979C461.741 157.179 462.085 157.444 462.373 157.774C462.671 158.104 462.899 158.474 463.057 158.884C463.224 159.294 463.307 159.714 463.305 160.144C463.302 160.614 463.214 161.064 463.042 161.494C462.87 161.924 462.623 162.294 462.301 162.604C461.989 162.914 461.623 163.139 461.202 163.279L463.685 167.329H461.795L459.505 163.624H457.03L457.01 167.329H455.33ZM457.038 162.139H459.978C460.288 162.139 460.564 162.049 460.805 161.869C461.046 161.689 461.237 161.449 461.379 161.149C461.521 160.839 461.593 160.504 461.595 160.144C461.597 159.774 461.518 159.444 461.36 159.154C461.202 158.854 460.993 158.614 460.734 158.434C460.485 158.254 460.211 158.164 459.911 158.164H457.061L457.038 162.139Z" fill="white"/>
<path d="M466.073 156.679L468.984 161.974L471.983 156.679H473.828L469.815 163.519L469.794 167.329H468.114L468.135 163.489L464.228 156.679H466.073Z" fill="white"/>
<path d="M436.542 185.404C435.842 185.404 435.188 185.259 434.579 184.969C433.971 184.679 433.438 184.279 432.981 183.769C432.534 183.259 432.182 182.679 431.925 182.029C431.679 181.379 431.558 180.689 431.562 179.959C431.566 179.229 431.695 178.544 431.948 177.904C432.212 177.264 432.57 176.694 433.023 176.194C433.486 175.694 434.023 175.304 434.634 175.024C435.256 174.744 435.932 174.604 436.662 174.604C437.672 174.604 438.52 174.819 439.208 175.249C439.906 175.669 440.428 176.229 440.774 176.929L439.479 177.859C439.202 177.279 438.804 176.844 438.286 176.554C437.777 176.264 437.218 176.119 436.608 176.119C436.108 176.119 435.653 176.224 435.242 176.434C434.83 176.644 434.474 176.934 434.172 177.304C433.88 177.664 433.657 178.079 433.505 178.549C433.352 179.009 433.275 179.494 433.272 180.004C433.269 180.544 433.351 181.049 433.518 181.519C433.686 181.989 433.923 182.404 434.231 182.764C434.539 183.114 434.903 183.389 435.322 183.589C435.741 183.789 436.195 183.889 436.685 183.889C437.265 183.889 437.816 183.744 438.338 183.454C438.869 183.154 439.367 182.709 439.83 182.119L439.82 183.829C438.885 184.879 437.792 185.404 436.542 185.404ZM439.67 181.189H437.435L437.442 179.944H441.087L441.057 185.329H439.647L439.67 181.189Z" fill="white"/>
<path d="M447.898 185.404C447.128 185.404 446.434 185.254 445.815 184.954C445.197 184.654 444.664 184.249 444.217 183.739C443.77 183.219 443.423 182.639 443.177 181.999C442.94 181.349 442.824 180.684 442.828 180.004C442.832 179.294 442.966 178.619 443.229 177.979C443.493 177.329 443.856 176.754 444.319 176.254C444.782 175.744 445.324 175.344 445.945 175.054C446.577 174.754 447.258 174.604 447.988 174.604C448.748 174.604 449.437 174.759 450.055 175.069C450.684 175.379 451.216 175.794 451.653 176.314C452.101 176.834 452.442 177.414 452.679 178.054C452.925 178.694 453.047 179.349 453.043 180.019C453.039 180.729 452.905 181.409 452.642 182.059C452.388 182.699 452.03 183.274 451.567 183.784C451.104 184.284 450.557 184.679 449.925 184.969C449.304 185.259 448.628 185.404 447.898 185.404ZM444.538 180.004C444.535 180.504 444.612 180.989 444.77 181.459C444.927 181.929 445.15 182.349 445.438 182.719C445.736 183.079 446.094 183.364 446.513 183.574C446.932 183.784 447.401 183.889 447.921 183.889C448.461 183.889 448.942 183.779 449.363 183.559C449.784 183.339 450.136 183.044 450.418 182.674C450.71 182.294 450.933 181.874 451.085 181.414C451.238 180.944 451.315 180.474 451.318 180.004C451.321 179.504 451.243 179.024 451.086 178.564C450.939 178.094 450.716 177.679 450.418 177.319C450.12 176.949 449.762 176.659 449.343 176.449C448.934 176.239 448.474 176.134 447.964 176.134C447.424 176.134 446.944 176.244 446.523 176.464C446.101 176.684 445.745 176.979 445.453 177.349C445.161 177.719 444.933 178.134 444.771 178.594C444.618 179.054 444.541 179.524 444.538 180.004Z" fill="white"/>
<path d="M459.677 185.404C458.907 185.404 458.213 185.254 457.595 184.954C456.976 184.654 456.444 184.249 455.997 183.739C455.549 183.219 455.203 182.639 454.956 181.999C454.72 181.349 454.603 180.684 454.607 180.004C454.611 179.294 454.745 178.619 455.009 177.979C455.272 177.329 455.635 176.754 456.098 176.254C456.561 175.744 457.103 175.344 457.725 175.054C458.356 174.754 459.037 174.604 459.767 174.604C460.527 174.604 461.216 174.759 461.835 175.069C462.463 175.379 462.996 175.794 463.433 176.314C463.88 176.834 464.222 177.414 464.458 178.054C464.705 178.694 464.826 179.349 464.822 180.019C464.818 180.729 464.684 181.409 464.421 182.059C464.167 182.699 463.809 183.274 463.346 183.784C462.884 184.284 462.336 184.679 461.705 184.969C461.083 185.259 460.407 185.404 459.677 185.404ZM456.317 180.004C456.314 180.504 456.392 180.989 456.549 181.459C456.707 181.929 456.929 182.349 457.217 182.719C457.515 183.079 457.874 183.364 458.292 183.574C458.711 183.784 459.181 183.889 459.701 183.889C460.241 183.889 460.721 183.779 461.143 183.559C461.564 183.339 461.915 183.044 462.197 182.674C462.49 182.294 462.712 181.874 462.864 181.414C463.017 180.944 463.095 180.474 463.097 180.004C463.1 179.504 463.023 179.024 462.865 178.564C462.718 178.094 462.495 177.679 462.197 177.319C461.899 176.949 461.541 176.659 461.122 176.449C460.713 176.239 460.254 176.134 459.744 176.134C459.204 176.134 458.723 176.244 458.302 176.464C457.881 176.684 457.524 176.979 457.232 177.349C456.94 177.719 456.713 178.134 456.55 178.594C456.398 179.054 456.32 179.524 456.317 180.004Z" fill="white"/>
<path d="M467.032 185.329L467.091 174.679H470.871C472.021 174.679 472.98 174.919 473.747 175.399C474.515 175.869 475.086 176.509 475.461 177.319C475.847 178.119 476.037 179.009 476.032 179.989C476.026 181.069 475.805 182.009 475.371 182.809C474.947 183.609 474.343 184.229 473.561 184.669C472.778 185.109 471.862 185.329 470.812 185.329H467.032ZM474.322 179.989C474.326 179.239 474.189 178.579 473.913 178.009C473.646 177.429 473.253 176.979 472.735 176.659C472.227 176.329 471.603 176.164 470.863 176.164H468.763L468.72 183.844H470.82C471.57 183.844 472.201 183.674 472.713 183.334C473.235 182.994 473.633 182.534 473.906 181.954C474.179 181.374 474.318 180.719 474.322 179.989Z" fill="white"/>
<path d="M440.03 226.999L440.022 228.484H432.717L432.776 217.834H439.946L439.938 219.319H434.448L434.431 222.349H439.186L439.178 223.744H434.423L434.405 226.999H440.03Z" fill="white"/>
<path d="M442.989 217.834L445.906 222.019L448.869 217.834H450.729L446.859 223.234L450.55 228.484H448.69L445.893 224.449L443.05 228.484H441.175L444.924 223.234L441.114 217.834H442.989Z" fill="white"/>
<path d="M451.221 223.084C451.225 222.434 451.344 221.799 451.577 221.179C451.811 220.549 452.149 219.979 452.592 219.469C453.044 218.949 453.592 218.539 454.233 218.239C454.875 217.929 455.601 217.774 456.411 217.774C457.371 217.774 458.2 217.994 458.897 218.434C459.595 218.864 460.112 219.419 460.448 220.099L459.123 220.984C458.926 220.554 458.672 220.214 458.364 219.964C458.065 219.714 457.736 219.539 457.377 219.439C457.027 219.339 456.683 219.289 456.343 219.289C455.783 219.289 455.292 219.404 454.871 219.634C454.449 219.854 454.093 220.149 453.801 220.519C453.519 220.889 453.301 221.304 453.149 221.764C453.006 222.224 452.934 222.684 452.931 223.144C452.928 223.654 453.011 224.149 453.178 224.629C453.345 225.099 453.578 225.519 453.876 225.889C454.184 226.249 454.547 226.534 454.966 226.744C455.385 226.954 455.844 227.059 456.344 227.059C456.684 227.059 457.04 226.999 457.41 226.879C457.781 226.759 458.122 226.574 458.434 226.324C458.755 226.064 459.007 225.724 459.189 225.304L460.58 226.099C460.357 226.629 460.009 227.079 459.537 227.449C459.075 227.819 458.554 228.099 457.973 228.289C457.402 228.479 456.836 228.574 456.276 228.574C455.526 228.574 454.842 228.419 454.224 228.109C453.605 227.789 453.073 227.369 452.626 226.849C452.179 226.319 451.832 225.729 451.585 225.079C451.339 224.419 451.218 223.754 451.221 223.084Z" fill="white"/>
<path d="M469.934 226.999L469.925 228.484H462.62L462.68 217.834H469.85L469.841 219.319H464.351L464.334 222.349H469.089L469.082 223.744H464.327L464.309 226.999H469.934Z" fill="white"/>
<path d="M472.159 228.484L472.218 217.834H473.898L473.847 226.999H479.562L479.553 228.484H472.159Z" fill="white"/>
<path d="M481.418 228.484L481.477 217.834H483.157L483.107 226.999H488.822L488.813 228.484H481.418Z" fill="white"/>
<path d="M497.991 226.999L497.983 228.484H490.678L490.737 217.834H497.907L497.899 219.319H492.409L492.392 222.349H497.147L497.139 223.744H492.384L492.366 226.999H497.991Z" fill="white"/>
<path d="M501.938 220.954L501.896 228.484H500.216L500.275 217.834H501.655L507.643 225.529L507.685 217.849H509.38L509.321 228.484H507.851L501.938 220.954Z" fill="white"/>
<path d="M520.081 219.319H516.541L516.49 228.484H514.795L514.846 219.319H511.291L511.299 217.834H520.089L520.081 219.319Z" fill="white"/>
<path d="M445.537 264.194L445.53 265.481H439.199L439.25 256.251H445.464L445.457 257.538H440.699L440.684 260.164H444.805L444.799 261.373H440.678L440.662 264.194H445.537Z" fill="white"/>
<path d="M448.168 256.251L450.696 259.878L453.264 256.251H454.876L451.522 260.931L454.721 265.481H453.109L450.684 261.984L448.221 265.481H446.596L449.845 260.931L446.543 256.251H448.168Z" fill="white"/>
<path d="M455.369 260.801C455.372 260.238 455.475 259.687 455.677 259.15C455.88 258.604 456.173 258.11 456.557 257.668C456.949 257.217 457.423 256.862 457.98 256.602C458.536 256.333 459.165 256.199 459.867 256.199C460.699 256.199 461.417 256.39 462.022 256.771C462.626 257.144 463.074 257.625 463.366 258.214L462.217 258.981C462.046 258.608 461.827 258.314 461.559 258.097C461.3 257.88 461.015 257.729 460.704 257.642C460.401 257.555 460.102 257.512 459.807 257.512C459.322 257.512 458.897 257.612 458.532 257.811C458.167 258.002 457.858 258.257 457.605 258.578C457.36 258.899 457.172 259.258 457.04 259.657C456.916 260.056 456.853 260.454 456.851 260.853C456.848 261.295 456.92 261.724 457.065 262.14C457.21 262.547 457.411 262.911 457.67 263.232C457.937 263.544 458.252 263.791 458.615 263.973C458.978 264.155 459.376 264.246 459.809 264.246C460.104 264.246 460.412 264.194 460.733 264.09C461.054 263.986 461.35 263.826 461.62 263.609C461.898 263.384 462.116 263.089 462.275 262.725L463.48 263.414C463.286 263.873 462.985 264.263 462.576 264.584C462.176 264.905 461.724 265.147 461.22 265.312C460.725 265.477 460.235 265.559 459.75 265.559C459.1 265.559 458.507 265.425 457.971 265.156C457.435 264.879 456.974 264.515 456.586 264.064C456.199 263.605 455.898 263.093 455.685 262.53C455.471 261.958 455.366 261.382 455.369 260.801Z" fill="white"/>
<path d="M471.653 264.194L471.646 265.481H465.315L465.366 256.251H471.58L471.573 257.538H466.815L466.8 260.164H470.921L470.915 261.373H466.794L466.778 264.194H471.653Z" fill="white"/>
<path d="M473.648 265.481L473.699 256.251H477.573C477.989 256.251 478.37 256.338 478.716 256.511C479.061 256.684 479.364 256.914 479.622 257.2C479.88 257.486 480.078 257.807 480.215 258.162C480.351 258.517 480.419 258.881 480.417 259.254C480.414 259.765 480.294 260.255 480.057 260.723C479.829 261.182 479.502 261.555 479.076 261.841C478.659 262.127 478.172 262.27 477.618 262.27H475.122L475.104 265.481H473.648ZM475.129 260.983H477.534C477.811 260.983 478.054 260.909 478.263 260.762C478.472 260.606 478.634 260.398 478.748 260.138C478.87 259.878 478.933 259.583 478.935 259.254C478.936 258.916 478.869 258.617 478.732 258.357C478.594 258.097 478.413 257.898 478.189 257.759C477.973 257.612 477.735 257.538 477.475 257.538H475.148L475.129 260.983Z" fill="white"/>
<path d="M489.065 257.538H485.997L485.953 265.481H484.484L484.528 257.538H481.447L481.454 256.251H489.072L489.065 257.538Z" fill="white"/>
<path d="M490.758 265.481L490.81 256.251H492.266L492.214 265.481H490.758Z" fill="white"/>
<path d="M498.635 265.546C497.968 265.546 497.366 265.416 496.83 265.156C496.294 264.896 495.832 264.545 495.445 264.103C495.057 263.652 494.757 263.15 494.543 262.595C494.338 262.032 494.238 261.455 494.241 260.866C494.244 260.251 494.36 259.666 494.589 259.111C494.817 258.548 495.132 258.049 495.533 257.616C495.934 257.174 496.404 256.827 496.943 256.576C497.49 256.316 498.08 256.186 498.713 256.186C499.372 256.186 499.969 256.32 500.505 256.589C501.049 256.858 501.511 257.217 501.89 257.668C502.277 258.119 502.573 258.621 502.778 259.176C502.992 259.731 503.097 260.298 503.094 260.879C503.09 261.494 502.974 262.084 502.746 262.647C502.526 263.202 502.216 263.7 501.815 264.142C501.414 264.575 500.939 264.918 500.392 265.169C499.853 265.42 499.268 265.546 498.635 265.546ZM495.723 260.866C495.72 261.299 495.788 261.72 495.924 262.127C496.06 262.534 496.253 262.898 496.503 263.219C496.761 263.531 497.072 263.778 497.435 263.96C497.798 264.142 498.205 264.233 498.655 264.233C499.123 264.233 499.54 264.138 499.905 263.947C500.27 263.756 500.575 263.501 500.819 263.18C501.072 262.851 501.265 262.487 501.397 262.088C501.529 261.681 501.597 261.273 501.599 260.866C501.601 260.433 501.534 260.017 501.398 259.618C501.27 259.211 501.077 258.851 500.819 258.539C500.561 258.218 500.25 257.967 499.887 257.785C499.533 257.603 499.135 257.512 498.693 257.512C498.225 257.512 497.808 257.607 497.443 257.798C497.078 257.989 496.769 258.244 496.516 258.565C496.263 258.886 496.066 259.245 495.925 259.644C495.792 260.043 495.725 260.45 495.723 260.866Z" fill="white"/>
<path d="M506.568 258.955L506.532 265.481H505.076L505.127 256.251H506.323L511.512 262.92L511.549 256.264H513.018L512.967 265.481H511.693L506.568 258.955Z" fill="white"/>
<path d="M518.258 256.251H519.636L523.172 265.481H521.638L520.677 262.972H517.115L516.14 265.481H514.593L518.258 256.251ZM520.397 261.893L518.938 257.85L517.381 261.893H520.397Z" fill="white"/>
<path d="M524.814 265.481L524.865 256.251H526.321L526.277 264.194H531.23L531.223 265.481H524.814Z" fill="white"/>
<path d="M221.639 112.379L221.698 101.729H226.168C226.648 101.729 227.087 101.829 227.486 102.029C227.885 102.229 228.234 102.494 228.532 102.824C228.83 103.154 229.058 103.524 229.216 103.934C229.373 104.344 229.451 104.764 229.449 105.194C229.445 105.784 229.307 106.349 229.034 106.889C228.771 107.419 228.394 107.849 227.902 108.179C227.42 108.509 226.859 108.674 226.219 108.674H223.339L223.319 112.379H221.639ZM223.348 107.189H226.123C226.443 107.189 226.723 107.104 226.964 106.934C227.205 106.754 227.391 106.514 227.523 106.214C227.665 105.914 227.736 105.574 227.739 105.194C227.741 104.804 227.663 104.459 227.504 104.159C227.346 103.859 227.137 103.629 226.878 103.469C226.629 103.299 226.355 103.214 226.055 103.214H223.37L223.348 107.189Z" fill="white"/>
<path d="M235.909 112.454C235.139 112.454 234.445 112.304 233.826 112.004C233.208 111.704 232.675 111.299 232.228 110.789C231.781 110.269 231.434 109.689 231.188 109.049C230.951 108.399 230.835 107.734 230.839 107.054C230.843 106.344 230.977 105.669 231.24 105.029C231.504 104.379 231.867 103.804 232.33 103.304C232.793 102.794 233.335 102.394 233.956 102.104C234.588 101.804 235.269 101.654 235.999 101.654C236.759 101.654 237.448 101.809 238.066 102.119C238.695 102.429 239.227 102.844 239.664 103.364C240.112 103.884 240.453 104.464 240.69 105.104C240.936 105.744 241.058 106.399 241.054 107.069C241.05 107.779 240.916 108.459 240.653 109.109C240.399 109.749 240.041 110.324 239.578 110.834C239.115 111.334 238.568 111.729 237.936 112.019C237.315 112.309 236.639 112.454 235.909 112.454ZM232.549 107.054C232.546 107.554 232.623 108.039 232.781 108.509C232.938 108.979 233.161 109.399 233.449 109.769C233.747 110.129 234.105 110.414 234.524 110.624C234.943 110.834 235.412 110.939 235.932 110.939C236.472 110.939 236.953 110.829 237.374 110.609C237.795 110.389 238.147 110.094 238.429 109.724C238.721 109.344 238.944 108.924 239.096 108.464C239.249 107.994 239.326 107.524 239.329 107.054C239.332 106.554 239.254 106.074 239.097 105.614C238.95 105.144 238.727 104.729 238.429 104.369C238.131 103.999 237.773 103.709 237.354 103.499C236.945 103.289 236.485 103.184 235.975 103.184C235.435 103.184 234.955 103.294 234.534 103.514C234.112 103.734 233.756 104.029 233.464 104.399C233.172 104.769 232.944 105.184 232.782 105.644C232.629 106.104 232.552 106.574 232.549 107.054Z" fill="white"/>
<path d="M247.688 112.454C246.918 112.454 246.224 112.304 245.606 112.004C244.987 111.704 244.455 111.299 244.008 110.789C243.56 110.269 243.214 109.689 242.967 109.049C242.731 108.399 242.614 107.734 242.618 107.054C242.622 106.344 242.756 105.669 243.02 105.029C243.283 104.379 243.646 103.804 244.109 103.304C244.572 102.794 245.114 102.394 245.736 102.104C246.367 101.804 247.048 101.654 247.778 101.654C248.538 101.654 249.227 101.809 249.846 102.119C250.474 102.429 251.007 102.844 251.444 103.364C251.891 103.884 252.233 104.464 252.469 105.104C252.716 105.744 252.837 106.399 252.833 107.069C252.829 107.779 252.695 108.459 252.432 109.109C252.178 109.749 251.82 110.324 251.357 110.834C250.895 111.334 250.347 111.729 249.716 112.019C249.094 112.309 248.418 112.454 247.688 112.454ZM244.328 107.054C244.325 107.554 244.403 108.039 244.56 108.509C244.718 108.979 244.94 109.399 245.228 109.769C245.526 110.129 245.885 110.414 246.303 110.624C246.722 110.834 247.192 110.939 247.712 110.939C248.252 110.939 248.732 110.829 249.154 110.609C249.575 110.389 249.926 110.094 250.208 109.724C250.501 109.344 250.723 108.924 250.875 108.464C251.028 107.994 251.106 107.524 251.108 107.054C251.111 106.554 251.034 106.074 250.876 105.614C250.729 105.144 250.506 104.729 250.208 104.369C249.91 103.999 249.552 103.709 249.133 103.499C248.724 103.289 248.265 103.184 247.755 103.184C247.215 103.184 246.734 103.294 246.313 103.514C245.892 103.734 245.535 104.029 245.243 104.399C244.951 104.769 244.724 105.184 244.561 105.644C244.409 106.104 244.331 106.574 244.328 107.054Z" fill="white"/>
<path d="M255.043 112.379L255.102 101.729H259.737C260.217 101.729 260.657 101.829 261.055 102.029C261.454 102.229 261.798 102.494 262.086 102.824C262.384 103.154 262.612 103.524 262.77 103.934C262.938 104.344 263.02 104.764 263.018 105.194C263.015 105.664 262.928 106.114 262.755 106.544C262.583 106.974 262.336 107.344 262.014 107.654C261.702 107.964 261.336 108.189 260.915 108.329L263.398 112.379H261.508L259.219 108.674H256.744L256.723 112.379H255.043ZM256.752 107.189H259.692C260.002 107.189 260.277 107.099 260.518 106.919C260.759 106.739 260.951 106.499 261.092 106.199C261.234 105.889 261.306 105.554 261.308 105.194C261.31 104.824 261.232 104.494 261.073 104.204C260.915 103.904 260.706 103.664 260.447 103.484C260.198 103.304 259.924 103.214 259.624 103.214H256.774L256.752 107.189Z" fill="white"/>
<path d="M0 262C0 255.373 5.37258 250 12 250H34C40.6274 250 46 255.373 46 262C46 268.627 40.6274 274 34 274H12C5.37258 274 0 268.627 0 262Z" fill="#FF5757"/>
<path d="M563 269C563 262.373 568.373 257 575 257H596C602.627 257 608 262.373 608 269C608 275.627 602.627 281 596 281H575C568.373 281 563 275.627 563 269Z" fill="#0DC076"/>
<path d="M573.476 268.45C573.476 269.075 573.625 269.64 573.924 270.144C574.232 270.639 574.647 271.035 575.17 271.334C575.693 271.633 576.276 271.782 576.92 271.782C577.275 271.782 577.601 271.726 577.9 271.614C578.208 271.502 578.479 271.343 578.712 271.138C578.945 270.933 579.127 270.695 579.258 270.424C579.249 271.143 579.146 271.754 578.95 272.258C578.763 272.762 578.497 273.145 578.152 273.406C577.807 273.677 577.401 273.812 576.934 273.812C576.486 273.812 576.071 273.695 575.688 273.462C575.305 273.229 575.007 272.921 574.792 272.538L573.882 273.49C574.209 274.013 574.638 274.419 575.17 274.708C575.702 275.007 576.281 275.156 576.906 275.156C577.671 275.156 578.339 274.941 578.908 274.512C579.477 274.083 579.916 273.443 580.224 272.594C580.541 271.745 580.7 270.685 580.7 269.416C580.7 268.492 580.546 267.703 580.238 267.05C579.939 266.387 579.519 265.883 578.978 265.538C578.437 265.183 577.802 265.006 577.074 265.006C576.402 265.006 575.791 265.16 575.24 265.468C574.699 265.776 574.269 266.191 573.952 266.714C573.635 267.237 573.476 267.815 573.476 268.45ZM577.06 266.322C577.443 266.322 577.793 266.42 578.11 266.616C578.427 266.803 578.684 267.059 578.88 267.386C579.076 267.713 579.174 268.067 579.174 268.45C579.174 268.833 579.076 269.183 578.88 269.5C578.693 269.817 578.441 270.074 578.124 270.27C577.807 270.457 577.452 270.55 577.06 270.55C576.677 270.55 576.323 270.457 575.996 270.27C575.679 270.074 575.422 269.817 575.226 269.5C575.039 269.183 574.946 268.833 574.946 268.45C574.946 268.058 575.039 267.703 575.226 267.386C575.422 267.059 575.679 266.803 575.996 266.616C576.323 266.42 576.677 266.322 577.06 266.322Z" fill="white"/>
<path d="M589.626 268.898C589.626 269.719 589.467 270.452 589.15 271.096C588.842 271.731 588.417 272.23 587.876 272.594C587.344 272.958 586.733 273.14 586.042 273.14C585.361 273.14 584.749 272.958 584.208 272.594C583.667 272.23 583.237 271.731 582.92 271.096C582.612 270.452 582.458 269.719 582.458 268.898C582.458 268.077 582.612 267.349 582.92 266.714C583.237 266.07 583.667 265.566 584.208 265.202C584.749 264.829 585.361 264.642 586.042 264.642C586.733 264.642 587.344 264.829 587.876 265.202C588.417 265.566 588.842 266.07 589.15 266.714C589.467 267.349 589.626 268.077 589.626 268.898ZM588.058 268.898C588.058 268.338 587.974 267.848 587.806 267.428C587.638 266.999 587.4 266.667 587.092 266.434C586.784 266.191 586.434 266.07 586.042 266.07C585.641 266.07 585.286 266.191 584.978 266.434C584.67 266.667 584.427 266.999 584.25 267.428C584.082 267.848 583.998 268.338 583.998 268.898C583.998 269.458 584.082 269.948 584.25 270.368C584.427 270.788 584.67 271.119 584.978 271.362C585.286 271.595 585.641 271.712 586.042 271.712C586.434 271.712 586.779 271.595 587.078 271.362C587.386 271.119 587.624 270.788 587.792 270.368C587.969 269.948 588.058 269.458 588.058 268.898Z" fill="white"/>
<path d="M598.726 268.898C598.726 269.719 598.567 270.452 598.25 271.096C597.942 271.731 597.517 272.23 596.976 272.594C596.444 272.958 595.832 273.14 595.142 273.14C594.46 273.14 593.849 272.958 593.308 272.594C592.766 272.23 592.337 271.731 592.02 271.096C591.712 270.452 591.558 269.719 591.558 268.898C591.558 268.077 591.712 267.349 592.02 266.714C592.337 266.07 592.766 265.566 593.308 265.202C593.849 264.829 594.46 264.642 595.142 264.642C595.832 264.642 596.444 264.829 596.976 265.202C597.517 265.566 597.942 266.07 598.25 266.714C598.567 267.349 598.726 268.077 598.726 268.898ZM597.158 268.898C597.158 268.338 597.074 267.848 596.906 267.428C596.738 266.999 596.5 266.667 596.192 266.434C595.884 266.191 595.534 266.07 595.142 266.07C594.74 266.07 594.386 266.191 594.078 266.434C593.77 266.667 593.527 266.999 593.35 267.428C593.182 267.848 593.098 268.338 593.098 268.898C593.098 269.458 593.182 269.948 593.35 270.368C593.527 270.788 593.77 271.119 594.078 271.362C594.386 271.595 594.74 271.712 595.142 271.712C595.534 271.712 595.879 271.595 596.178 271.362C596.486 271.119 596.724 270.788 596.892 270.368C597.069 269.948 597.158 269.458 597.158 268.898Z" fill="white"/>
<path d="M557 226C557 219.373 562.373 214 569 214H591C597.627 214 603 219.373 603 226C603 232.627 597.627 238 591 238H569C562.373 238 557 232.627 557 226Z" fill="#4DD09A"/>
<path d="M119 57C119 50.9249 123.925 46 130 46H155C161.075 46 166 50.9249 166 57C166 63.0751 161.075 68 155 68H130C123.925 68 119 63.0751 119 57Z" fill="#CC6AC0"/>
<path d="M232 11.5C232 5.14873 237.149 0 243.5 0H265.5C271.851 0 277 5.14873 277 11.5C277 17.8513 271.851 23 265.5 23H243.5C237.149 23 232 17.8513 232 11.5Z" fill="#99428E"/>
<path d="M357 12C357 5.92487 361.925 1 368 1H391C397.075 1 402 5.92487 402 12C402 18.0751 397.075 23 391 23H368C361.925 23 357 18.0751 357 12Z" fill="#8F00FF"/>
<path d="M478 79.5C478 73.1487 483.149 68 489.5 68H510.5C516.851 68 522 73.1487 522 79.5C522 85.8513 516.851 91 510.5 91H489.5C483.149 91 478 85.8513 478 79.5Z" fill="#554BF9"/>
<path d="M536 161C536 154.925 540.925 150 547 150H571C577.075 150 582 154.925 582 161C582 167.075 577.075 172 571 172H547C540.925 172 536 167.075 536 161Z" fill="#3AA7A3"/>
<path d="M576.756 228.13C576.756 228.727 576.593 229.25 576.266 229.698C575.949 230.146 575.515 230.496 574.964 230.748C574.423 230.991 573.83 231.112 573.186 231.112C572.523 231.112 571.926 230.981 571.394 230.72C570.862 230.449 570.437 230.085 570.12 229.628C569.803 229.171 569.644 228.648 569.644 228.06C569.644 227.668 569.733 227.318 569.91 227.01C570.087 226.693 570.307 226.422 570.568 226.198C570.829 225.974 571.095 225.801 571.366 225.68C571.114 225.559 570.881 225.405 570.666 225.218C570.461 225.022 570.293 224.798 570.162 224.546C570.041 224.294 569.98 224.023 569.98 223.734C569.98 223.305 570.073 222.927 570.26 222.6C570.456 222.264 570.713 221.984 571.03 221.76C571.347 221.527 571.693 221.354 572.066 221.242C572.449 221.121 572.827 221.06 573.2 221.06C573.583 221.06 573.961 221.121 574.334 221.242C574.717 221.354 575.067 221.522 575.384 221.746C575.711 221.97 575.967 222.25 576.154 222.586C576.35 222.913 576.448 223.291 576.448 223.72C576.448 224.009 576.383 224.285 576.252 224.546C576.131 224.798 575.958 225.022 575.734 225.218C575.519 225.414 575.286 225.568 575.034 225.68C575.333 225.811 575.613 225.993 575.874 226.226C576.145 226.459 576.359 226.735 576.518 227.052C576.677 227.369 576.756 227.729 576.756 228.13ZM575.202 228.032C575.202 227.761 575.141 227.519 575.02 227.304C574.908 227.089 574.754 226.912 574.558 226.772C574.362 226.623 574.147 226.511 573.914 226.436C573.681 226.361 573.443 226.324 573.2 226.324C572.855 226.324 572.533 226.394 572.234 226.534C571.935 226.674 571.693 226.875 571.506 227.136C571.319 227.388 571.226 227.687 571.226 228.032C571.226 228.293 571.282 228.531 571.394 228.746C571.506 228.951 571.655 229.129 571.842 229.278C572.038 229.427 572.253 229.539 572.486 229.614C572.729 229.689 572.971 229.726 573.214 229.726C573.55 229.726 573.867 229.656 574.166 229.516C574.474 229.367 574.721 229.166 574.908 228.914C575.104 228.653 575.202 228.359 575.202 228.032ZM571.534 223.79C571.534 224.079 571.618 224.327 571.786 224.532C571.954 224.737 572.169 224.891 572.43 224.994C572.691 225.097 572.948 225.148 573.2 225.148C573.461 225.148 573.718 225.097 573.97 224.994C574.231 224.882 574.446 224.723 574.614 224.518C574.791 224.313 574.88 224.061 574.88 223.762C574.88 223.491 574.801 223.258 574.642 223.062C574.483 222.857 574.273 222.703 574.012 222.6C573.76 222.488 573.489 222.432 573.2 222.432C572.911 222.432 572.635 222.488 572.374 222.6C572.122 222.712 571.917 222.871 571.758 223.076C571.609 223.272 571.534 223.51 571.534 223.79Z" fill="white"/>
<path d="M583.116 224.252H578.3V222.838H585.552L580.582 232.778H578.832L583.116 224.252Z" fill="white"/>
<path d="M593.96 226.898C593.96 227.719 593.801 228.452 593.484 229.096C593.176 229.731 592.751 230.23 592.21 230.594C591.678 230.958 591.067 231.14 590.376 231.14C589.695 231.14 589.083 230.958 588.542 230.594C588.001 230.23 587.571 229.731 587.254 229.096C586.946 228.452 586.792 227.719 586.792 226.898C586.792 226.077 586.946 225.349 587.254 224.714C587.571 224.07 588.001 223.566 588.542 223.202C589.083 222.829 589.695 222.642 590.376 222.642C591.067 222.642 591.678 222.829 592.21 223.202C592.751 223.566 593.176 224.07 593.484 224.714C593.801 225.349 593.96 226.077 593.96 226.898ZM592.392 226.898C592.392 226.338 592.308 225.848 592.14 225.428C591.972 224.999 591.734 224.667 591.426 224.434C591.118 224.191 590.768 224.07 590.376 224.07C589.975 224.07 589.62 224.191 589.312 224.434C589.004 224.667 588.761 224.999 588.584 225.428C588.416 225.848 588.332 226.338 588.332 226.898C588.332 227.458 588.416 227.948 588.584 228.368C588.761 228.788 589.004 229.119 589.312 229.362C589.62 229.595 589.975 229.712 590.376 229.712C590.768 229.712 591.113 229.595 591.412 229.362C591.72 229.119 591.958 228.788 592.126 228.368C592.303 227.948 592.392 227.458 592.392 226.898Z" fill="white"/>
<path d="M554.756 162.13C554.756 162.727 554.593 163.25 554.266 163.698C553.949 164.146 553.515 164.496 552.964 164.748C552.423 164.991 551.83 165.112 551.186 165.112C550.523 165.112 549.926 164.981 549.394 164.72C548.862 164.449 548.437 164.085 548.12 163.628C547.803 163.171 547.644 162.648 547.644 162.06C547.644 161.668 547.733 161.318 547.91 161.01C548.087 160.693 548.307 160.422 548.568 160.198C548.829 159.974 549.095 159.801 549.366 159.68C549.114 159.559 548.881 159.405 548.666 159.218C548.461 159.022 548.293 158.798 548.162 158.546C548.041 158.294 547.98 158.023 547.98 157.734C547.98 157.305 548.073 156.927 548.26 156.6C548.456 156.264 548.713 155.984 549.03 155.76C549.347 155.527 549.693 155.354 550.066 155.242C550.449 155.121 550.827 155.06 551.2 155.06C551.583 155.06 551.961 155.121 552.334 155.242C552.717 155.354 553.067 155.522 553.384 155.746C553.711 155.97 553.967 156.25 554.154 156.586C554.35 156.913 554.448 157.291 554.448 157.72C554.448 158.009 554.383 158.285 554.252 158.546C554.131 158.798 553.958 159.022 553.734 159.218C553.519 159.414 553.286 159.568 553.034 159.68C553.333 159.811 553.613 159.993 553.874 160.226C554.145 160.459 554.359 160.735 554.518 161.052C554.677 161.369 554.756 161.729 554.756 162.13ZM553.202 162.032C553.202 161.761 553.141 161.519 553.02 161.304C552.908 161.089 552.754 160.912 552.558 160.772C552.362 160.623 552.147 160.511 551.914 160.436C551.681 160.361 551.443 160.324 551.2 160.324C550.855 160.324 550.533 160.394 550.234 160.534C549.935 160.674 549.693 160.875 549.506 161.136C549.319 161.388 549.226 161.687 549.226 162.032C549.226 162.293 549.282 162.531 549.394 162.746C549.506 162.951 549.655 163.129 549.842 163.278C550.038 163.427 550.253 163.539 550.486 163.614C550.729 163.689 550.971 163.726 551.214 163.726C551.55 163.726 551.867 163.656 552.166 163.516C552.474 163.367 552.721 163.166 552.908 162.914C553.104 162.653 553.202 162.359 553.202 162.032ZM549.534 157.79C549.534 158.079 549.618 158.327 549.786 158.532C549.954 158.737 550.169 158.891 550.43 158.994C550.691 159.097 550.948 159.148 551.2 159.148C551.461 159.148 551.718 159.097 551.97 158.994C552.231 158.882 552.446 158.723 552.614 158.518C552.791 158.313 552.88 158.061 552.88 157.762C552.88 157.491 552.801 157.258 552.642 157.062C552.483 156.857 552.273 156.703 552.012 156.6C551.76 156.488 551.489 156.432 551.2 156.432C550.911 156.432 550.635 156.488 550.374 156.6C550.122 156.712 549.917 156.871 549.758 157.076C549.609 157.272 549.534 157.51 549.534 157.79Z" fill="white"/>
<path d="M563.79 160.898C563.79 161.719 563.632 162.452 563.314 163.096C563.006 163.731 562.582 164.23 562.04 164.594C561.508 164.958 560.897 165.14 560.206 165.14C559.525 165.14 558.914 164.958 558.372 164.594C557.831 164.23 557.402 163.731 557.084 163.096C556.776 162.452 556.622 161.719 556.622 160.898C556.622 160.077 556.776 159.349 557.084 158.714C557.402 158.07 557.831 157.566 558.372 157.202C558.914 156.829 559.525 156.642 560.206 156.642C560.897 156.642 561.508 156.829 562.04 157.202C562.582 157.566 563.006 158.07 563.314 158.714C563.632 159.349 563.79 160.077 563.79 160.898ZM562.222 160.898C562.222 160.338 562.138 159.848 561.97 159.428C561.802 158.999 561.564 158.667 561.256 158.434C560.948 158.191 560.598 158.07 560.206 158.07C559.805 158.07 559.45 158.191 559.142 158.434C558.834 158.667 558.592 158.999 558.414 159.428C558.246 159.848 558.162 160.338 558.162 160.898C558.162 161.458 558.246 161.948 558.414 162.368C558.592 162.788 558.834 163.119 559.142 163.362C559.45 163.595 559.805 163.712 560.206 163.712C560.598 163.712 560.944 163.595 561.242 163.362C561.55 163.119 561.788 162.788 561.956 162.368C562.134 161.948 562.222 161.458 562.222 160.898Z" fill="white"/>
<path d="M572.89 160.898C572.89 161.719 572.731 162.452 572.414 163.096C572.106 163.731 571.681 164.23 571.14 164.594C570.608 164.958 569.996 165.14 569.306 165.14C568.624 165.14 568.013 164.958 567.472 164.594C566.93 164.23 566.501 163.731 566.184 163.096C565.876 162.452 565.722 161.719 565.722 160.898C565.722 160.077 565.876 159.349 566.184 158.714C566.501 158.07 566.93 157.566 567.472 157.202C568.013 156.829 568.624 156.642 569.306 156.642C569.996 156.642 570.608 156.829 571.14 157.202C571.681 157.566 572.106 158.07 572.414 158.714C572.731 159.349 572.89 160.077 572.89 160.898ZM571.322 160.898C571.322 160.338 571.238 159.848 571.07 159.428C570.902 158.999 570.664 158.667 570.356 158.434C570.048 158.191 569.698 158.07 569.306 158.07C568.904 158.07 568.55 158.191 568.242 158.434C567.934 158.667 567.691 158.999 567.514 159.428C567.346 159.848 567.262 160.338 567.262 160.898C567.262 161.458 567.346 161.948 567.514 162.368C567.691 162.788 567.934 163.119 568.242 163.362C568.55 163.595 568.904 163.712 569.306 163.712C569.698 163.712 570.043 163.595 570.342 163.362C570.65 163.119 570.888 162.788 571.056 162.368C571.233 161.948 571.322 161.458 571.322 160.898Z" fill="white"/>
<path d="M494.208 76.252H489.392V74.838H496.644L491.674 84.778H489.924L494.208 76.252Z" fill="white"/>
<path d="M501.174 84.778V82.552H496.876V81.18L501.664 75.006H502.714V81.152H503.946V82.552H502.714V84.778H501.174ZM498.444 81.152H501.342V77.358L498.444 81.152Z" fill="white"/>
<path d="M512.853 78.898C512.853 79.7193 512.694 80.452 512.377 81.096C512.069 81.7307 511.644 82.23 511.103 82.594C510.571 82.958 509.959 83.14 509.269 83.14C508.587 83.14 507.976 82.958 507.435 82.594C506.893 82.23 506.464 81.7307 506.147 81.096C505.839 80.452 505.685 79.7193 505.685 78.898C505.685 78.0767 505.839 77.3487 506.147 76.714C506.464 76.07 506.893 75.566 507.435 75.202C507.976 74.8287 508.587 74.642 509.269 74.642C509.959 74.642 510.571 74.8287 511.103 75.202C511.644 75.566 512.069 76.07 512.377 76.714C512.694 77.3487 512.853 78.0767 512.853 78.898ZM511.285 78.898C511.285 78.338 511.201 77.848 511.033 77.428C510.865 76.9987 510.627 76.6673 510.319 76.434C510.011 76.1913 509.661 76.07 509.269 76.07C508.867 76.07 508.513 76.1913 508.205 76.434C507.897 76.6673 507.654 76.9987 507.477 77.428C507.309 77.848 507.225 78.338 507.225 78.898C507.225 79.458 507.309 79.948 507.477 80.368C507.654 80.788 507.897 81.1193 508.205 81.362C508.513 81.5953 508.867 81.712 509.269 81.712C509.661 81.712 510.006 81.5953 510.305 81.362C510.613 81.1193 510.851 80.788 511.019 80.368C511.196 79.948 511.285 79.458 511.285 78.898Z" fill="white"/>
<path d="M375.896 12.696C375.896 12.0707 375.742 11.5107 375.434 11.016C375.135 10.512 374.725 10.1107 374.202 9.812C373.689 9.51333 373.105 9.364 372.452 9.364C372.107 9.364 371.78 9.42 371.472 9.532C371.164 9.644 370.893 9.80267 370.66 10.008C370.436 10.204 370.254 10.442 370.114 10.722C370.123 10.0033 370.221 9.392 370.408 8.888C370.604 8.384 370.875 8.00133 371.22 7.74C371.575 7.46933 371.981 7.334 372.438 7.334C372.895 7.334 373.311 7.45067 373.684 7.684C374.067 7.908 374.365 8.216 374.58 8.608L375.49 7.656C375.163 7.13333 374.734 6.72733 374.202 6.438C373.679 6.13933 373.101 5.99 372.466 5.99C371.701 5.99 371.033 6.20467 370.464 6.634C369.895 7.06333 369.451 7.70267 369.134 8.552C368.826 9.40133 368.672 10.4607 368.672 11.73C368.672 12.6447 368.821 13.4333 369.12 14.096C369.428 14.7587 369.853 15.2673 370.394 15.622C370.945 15.9673 371.584 16.14 372.312 16.14C372.984 16.14 373.591 15.986 374.132 15.678C374.683 15.37 375.112 14.9547 375.42 14.432C375.737 13.9093 375.896 13.3307 375.896 12.696ZM372.312 14.824C371.939 14.824 371.589 14.726 371.262 14.53C370.945 14.334 370.688 14.0773 370.492 13.76C370.296 13.4333 370.198 13.0787 370.198 12.696C370.198 12.3133 370.291 11.9633 370.478 11.646C370.674 11.3287 370.935 11.0767 371.262 10.89C371.589 10.694 371.939 10.596 372.312 10.596C372.704 10.596 373.059 10.694 373.376 10.89C373.693 11.0767 373.945 11.3287 374.132 11.646C374.328 11.9633 374.426 12.3133 374.426 12.696C374.426 13.0787 374.328 13.4333 374.132 13.76C373.945 14.0867 373.689 14.348 373.362 14.544C373.045 14.7307 372.695 14.824 372.312 14.824Z" fill="white"/>
<path d="M380.672 18.086C379.953 18.086 379.309 17.9227 378.74 17.596C378.171 17.2787 377.737 16.8447 377.438 16.294L378.362 15.412C378.623 15.8133 378.959 16.1307 379.37 16.364C379.781 16.6067 380.219 16.728 380.686 16.728C381.069 16.728 381.409 16.644 381.708 16.476C382.007 16.3173 382.24 16.0933 382.408 15.804C382.585 15.5053 382.674 15.1647 382.674 14.782C382.674 14.4087 382.59 14.082 382.422 13.802C382.254 13.5127 382.03 13.2933 381.75 13.144C381.47 12.9853 381.148 12.906 380.784 12.906C380.429 12.906 380.098 12.9853 379.79 13.144C379.482 13.3027 379.23 13.5267 379.034 13.816H377.676L378.81 8.006H383.668V9.42H379.93L379.426 12.136C379.585 11.968 379.799 11.8327 380.07 11.73C380.341 11.618 380.649 11.562 380.994 11.562C381.619 11.562 382.175 11.702 382.66 11.982C383.155 12.2527 383.542 12.626 383.822 13.102C384.111 13.578 384.256 14.1287 384.256 14.754C384.256 15.4167 384.097 15.9953 383.78 16.49C383.463 16.994 383.033 17.386 382.492 17.666C381.951 17.946 381.344 18.086 380.672 18.086Z" fill="white"/>
<path d="M393.097 11.898C393.097 12.7193 392.938 13.452 392.621 14.096C392.313 14.7307 391.888 15.23 391.347 15.594C390.815 15.958 390.204 16.14 389.513 16.14C388.832 16.14 388.22 15.958 387.679 15.594C387.137 15.23 386.708 14.7307 386.391 14.096C386.083 13.452 385.929 12.7193 385.929 11.898C385.929 11.0767 386.083 10.3487 386.391 9.714C386.708 9.07 387.137 8.566 387.679 8.202C388.22 7.82867 388.832 7.642 389.513 7.642C390.204 7.642 390.815 7.82867 391.347 8.202C391.888 8.566 392.313 9.07 392.621 9.714C392.938 10.3487 393.097 11.0767 393.097 11.898ZM391.529 11.898C391.529 11.338 391.445 10.848 391.277 10.428C391.109 9.99867 390.871 9.66733 390.563 9.434C390.255 9.19133 389.905 9.07 389.513 9.07C389.112 9.07 388.757 9.19133 388.449 9.434C388.141 9.66733 387.898 9.99867 387.721 10.428C387.553 10.848 387.469 11.338 387.469 11.898C387.469 12.458 387.553 12.948 387.721 13.368C387.898 13.788 388.141 14.1193 388.449 14.362C388.757 14.5953 389.112 14.712 389.513 14.712C389.905 14.712 390.25 14.5953 390.549 14.362C390.857 14.1193 391.095 13.788 391.263 13.368C391.44 12.948 391.529 12.458 391.529 11.898Z" fill="white"/>
<path d="M245.668 18.086C244.949 18.086 244.305 17.9227 243.736 17.596C243.167 17.2787 242.733 16.8447 242.434 16.294L243.358 15.412C243.619 15.8133 243.955 16.1307 244.366 16.364C244.777 16.6067 245.215 16.728 245.682 16.728C246.065 16.728 246.405 16.644 246.704 16.476C247.003 16.3173 247.236 16.0933 247.404 15.804C247.581 15.5053 247.67 15.1647 247.67 14.782C247.67 14.4087 247.586 14.082 247.418 13.802C247.25 13.5127 247.026 13.2933 246.746 13.144C246.466 12.9853 246.144 12.906 245.78 12.906C245.425 12.906 245.094 12.9853 244.786 13.144C244.478 13.3027 244.226 13.5267 244.03 13.816H242.672L243.806 8.006H248.664V9.42H244.926L244.422 12.136C244.581 11.968 244.795 11.8327 245.066 11.73C245.337 11.618 245.645 11.562 245.99 11.562C246.615 11.562 247.171 11.702 247.656 11.982C248.151 12.2527 248.538 12.626 248.818 13.102C249.107 13.578 249.252 14.1287 249.252 14.754C249.252 15.4167 249.093 15.9953 248.776 16.49C248.459 16.994 248.029 17.386 247.488 17.666C246.947 17.946 246.34 18.086 245.668 18.086Z" fill="white"/>
<path d="M258.107 12.696C258.107 12.0707 257.953 11.5107 257.645 11.016C257.346 10.512 256.936 10.1107 256.413 9.812C255.9 9.51333 255.316 9.364 254.663 9.364C254.318 9.364 253.991 9.42 253.683 9.532C253.375 9.644 253.104 9.80267 252.871 10.008C252.647 10.204 252.465 10.442 252.325 10.722C252.334 10.0033 252.432 9.392 252.619 8.888C252.815 8.384 253.086 8.00133 253.431 7.74C253.786 7.46933 254.192 7.334 254.649 7.334C255.106 7.334 255.522 7.45067 255.895 7.684C256.278 7.908 256.576 8.216 256.791 8.608L257.701 7.656C257.374 7.13333 256.945 6.72733 256.413 6.438C255.89 6.13933 255.312 5.99 254.677 5.99C253.912 5.99 253.244 6.20467 252.675 6.634C252.106 7.06333 251.662 7.70267 251.345 8.552C251.037 9.40133 250.883 10.4607 250.883 11.73C250.883 12.6447 251.032 13.4333 251.331 14.096C251.639 14.7587 252.064 15.2673 252.605 15.622C253.156 15.9673 253.795 16.14 254.523 16.14C255.195 16.14 255.802 15.986 256.343 15.678C256.894 15.37 257.323 14.9547 257.631 14.432C257.948 13.9093 258.107 13.3307 258.107 12.696ZM254.523 14.824C254.15 14.824 253.8 14.726 253.473 14.53C253.156 14.334 252.899 14.0773 252.703 13.76C252.507 13.4333 252.409 13.0787 252.409 12.696C252.409 12.3133 252.502 11.9633 252.689 11.646C252.885 11.3287 253.146 11.0767 253.473 10.89C253.8 10.694 254.15 10.596 254.523 10.596C254.915 10.596 255.27 10.694 255.587 10.89C255.904 11.0767 256.156 11.3287 256.343 11.646C256.539 11.9633 256.637 12.3133 256.637 12.696C256.637 13.0787 256.539 13.4333 256.343 13.76C256.156 14.0867 255.9 14.348 255.573 14.544C255.256 14.7307 254.906 14.824 254.523 14.824Z" fill="white"/>
<path d="M267.097 11.898C267.097 12.7193 266.938 13.452 266.621 14.096C266.313 14.7307 265.888 15.23 265.347 15.594C264.815 15.958 264.204 16.14 263.513 16.14C262.832 16.14 262.22 15.958 261.679 15.594C261.137 15.23 260.708 14.7307 260.391 14.096C260.083 13.452 259.929 12.7193 259.929 11.898C259.929 11.0767 260.083 10.3487 260.391 9.714C260.708 9.07 261.137 8.566 261.679 8.202C262.22 7.82867 262.832 7.642 263.513 7.642C264.204 7.642 264.815 7.82867 265.347 8.202C265.888 8.566 266.313 9.07 266.621 9.714C266.938 10.3487 267.097 11.0767 267.097 11.898ZM265.529 11.898C265.529 11.338 265.445 10.848 265.277 10.428C265.109 9.99867 264.871 9.66733 264.563 9.434C264.255 9.19133 263.905 9.07 263.513 9.07C263.112 9.07 262.757 9.19133 262.449 9.434C262.141 9.66733 261.898 9.99867 261.721 10.428C261.553 10.848 261.469 11.338 261.469 11.898C261.469 12.458 261.553 12.948 261.721 13.368C261.898 13.788 262.141 14.1193 262.449 14.362C262.757 14.5953 263.112 14.712 263.513 14.712C263.905 14.712 264.25 14.5953 264.549 14.362C264.857 14.1193 265.095 13.788 265.263 13.368C265.44 12.948 265.529 12.458 265.529 11.898Z" fill="white"/>
<path d="M132.668 63.086C131.949 63.086 131.305 62.9227 130.736 62.596C130.167 62.2787 129.733 61.8447 129.434 61.294L130.358 60.412C130.619 60.8133 130.955 61.1307 131.366 61.364C131.777 61.6067 132.215 61.728 132.682 61.728C133.065 61.728 133.405 61.644 133.704 61.476C134.003 61.3173 134.236 61.0933 134.404 60.804C134.581 60.5053 134.67 60.1647 134.67 59.782C134.67 59.4087 134.586 59.082 134.418 58.802C134.25 58.5127 134.026 58.2933 133.746 58.144C133.466 57.9853 133.144 57.906 132.78 57.906C132.425 57.906 132.094 57.9853 131.786 58.144C131.478 58.3027 131.226 58.5267 131.03 58.816H129.672L130.806 53.006H135.664V54.42H131.926L131.422 57.136C131.581 56.968 131.795 56.8327 132.066 56.73C132.337 56.618 132.645 56.562 132.99 56.562C133.615 56.562 134.171 56.702 134.656 56.982C135.151 57.2527 135.538 57.626 135.818 58.102C136.107 58.578 136.252 59.1287 136.252 59.754C136.252 60.4167 136.093 60.9953 135.776 61.49C135.459 61.994 135.029 62.386 134.488 62.666C133.947 62.946 133.34 63.086 132.668 63.086Z" fill="white"/>
<path d="M145.093 56.898C145.093 57.7193 144.934 58.452 144.617 59.096C144.309 59.7307 143.884 60.23 143.343 60.594C142.811 60.958 142.2 61.14 141.509 61.14C140.828 61.14 140.216 60.958 139.675 60.594C139.134 60.23 138.704 59.7307 138.387 59.096C138.079 58.452 137.925 57.7193 137.925 56.898C137.925 56.0767 138.079 55.3487 138.387 54.714C138.704 54.07 139.134 53.566 139.675 53.202C140.216 52.8287 140.828 52.642 141.509 52.642C142.2 52.642 142.811 52.8287 143.343 53.202C143.884 53.566 144.309 54.07 144.617 54.714C144.934 55.3487 145.093 56.0767 145.093 56.898ZM143.525 56.898C143.525 56.338 143.441 55.848 143.273 55.428C143.105 54.9987 142.867 54.6673 142.559 54.434C142.251 54.1913 141.901 54.07 141.509 54.07C141.108 54.07 140.753 54.1913 140.445 54.434C140.137 54.6673 139.894 54.9987 139.717 55.428C139.549 55.848 139.465 56.338 139.465 56.898C139.465 57.458 139.549 57.948 139.717 58.368C139.894 58.788 140.137 59.1193 140.445 59.362C140.753 59.5953 141.108 59.712 141.509 59.712C141.901 59.712 142.246 59.5953 142.545 59.362C142.853 59.1193 143.091 58.788 143.259 58.368C143.436 57.948 143.525 57.458 143.525 56.898Z" fill="white"/>
<path d="M154.193 56.898C154.193 57.7193 154.034 58.452 153.717 59.096C153.409 59.7307 152.984 60.23 152.443 60.594C151.911 60.958 151.299 61.14 150.609 61.14C149.927 61.14 149.316 60.958 148.775 60.594C148.233 60.23 147.804 59.7307 147.487 59.096C147.179 58.452 147.025 57.7193 147.025 56.898C147.025 56.0767 147.179 55.3487 147.487 54.714C147.804 54.07 148.233 53.566 148.775 53.202C149.316 52.8287 149.927 52.642 150.609 52.642C151.299 52.642 151.911 52.8287 152.443 53.202C152.984 53.566 153.409 54.07 153.717 54.714C154.034 55.3487 154.193 56.0767 154.193 56.898ZM152.625 56.898C152.625 56.338 152.541 55.848 152.373 55.428C152.205 54.9987 151.967 54.6673 151.659 54.434C151.351 54.1913 151.001 54.07 150.609 54.07C150.207 54.07 149.853 54.1913 149.545 54.434C149.237 54.6673 148.994 54.9987 148.817 55.428C148.649 55.848 148.565 56.338 148.565 56.898C148.565 57.458 148.649 57.948 148.817 58.368C148.994 58.788 149.237 59.1193 149.545 59.362C149.853 59.5953 150.207 59.712 150.609 59.712C151.001 59.712 151.346 59.5953 151.645 59.362C151.953 59.1193 152.191 58.788 152.359 58.368C152.536 57.948 152.625 57.458 152.625 56.898Z" fill="white"/>
<path d="M15.166 262.696C15.558 262.761 15.8987 262.911 16.188 263.144C16.4867 263.368 16.7153 263.657 16.874 264.012C17.0327 264.357 17.112 264.749 17.112 265.188C17.112 265.767 16.9673 266.271 16.678 266.7C16.398 267.129 15.9967 267.461 15.474 267.694C14.9513 267.937 14.3353 268.058 13.626 268.058C12.9167 268.058 12.2913 267.932 11.75 267.68C11.2087 267.437 10.7747 267.083 10.448 266.616L11.386 265.552C11.61 265.888 11.8993 266.154 12.254 266.35C12.6087 266.555 13.0567 266.658 13.598 266.658C14.2047 266.658 14.676 266.527 15.012 266.266C15.348 266.005 15.516 265.613 15.516 265.09C15.516 264.549 15.3293 264.124 14.956 263.816C14.592 263.508 14.0413 263.354 13.304 263.354H12.926V262.15H13.346C13.9713 262.15 14.452 262.005 14.788 261.716C15.124 261.417 15.292 261.044 15.292 260.596C15.292 260.297 15.222 260.055 15.082 259.868C14.9513 259.672 14.7647 259.527 14.522 259.434C14.2793 259.341 13.9993 259.294 13.682 259.294C13.206 259.294 12.786 259.397 12.422 259.602C12.058 259.807 11.7687 260.101 11.554 260.484L10.588 259.434C10.7747 259.135 11.0313 258.874 11.358 258.65C11.6847 258.426 12.058 258.253 12.478 258.132C12.9073 258.001 13.36 257.936 13.836 257.936C14.452 257.936 14.9933 258.039 15.46 258.244C15.9267 258.449 16.286 258.739 16.538 259.112C16.7993 259.485 16.93 259.924 16.93 260.428C16.93 260.792 16.86 261.137 16.72 261.464C16.58 261.781 16.3747 262.052 16.104 262.276C15.8333 262.491 15.5207 262.631 15.166 262.696Z" fill="white"/>
<path d="M26.0656 261.898C26.0656 262.719 25.9069 263.452 25.5896 264.096C25.2816 264.731 24.8569 265.23 24.3156 265.594C23.7836 265.958 23.1723 266.14 22.4816 266.14C21.8003 266.14 21.1889 265.958 20.6476 265.594C20.1063 265.23 19.6769 264.731 19.3596 264.096C19.0516 263.452 18.8976 262.719 18.8976 261.898C18.8976 261.077 19.0516 260.349 19.3596 259.714C19.6769 259.07 20.1063 258.566 20.6476 258.202C21.1889 257.829 21.8003 257.642 22.4816 257.642C23.1723 257.642 23.7836 257.829 24.3156 258.202C24.8569 258.566 25.2816 259.07 25.5896 259.714C25.9069 260.349 26.0656 261.077 26.0656 261.898ZM24.4976 261.898C24.4976 261.338 24.4136 260.848 24.2456 260.428C24.0776 259.999 23.8396 259.667 23.5316 259.434C23.2236 259.191 22.8736 259.07 22.4816 259.07C22.0803 259.07 21.7256 259.191 21.4176 259.434C21.1096 259.667 20.8669 259.999 20.6896 260.428C20.5216 260.848 20.4376 261.338 20.4376 261.898C20.4376 262.458 20.5216 262.948 20.6896 263.368C20.8669 263.788 21.1096 264.119 21.4176 264.362C21.7256 264.595 22.0803 264.712 22.4816 264.712C22.8736 264.712 23.2189 264.595 23.5176 264.362C23.8256 264.119 24.0636 263.788 24.2316 263.368C24.4089 262.948 24.4976 262.458 24.4976 261.898Z" fill="white"/>
<path d="M35.1652 261.898C35.1652 262.719 35.0065 263.452 34.6892 264.096C34.3812 264.731 33.9565 265.23 33.4152 265.594C32.8832 265.958 32.2719 266.14 31.5812 266.14C30.8999 266.14 30.2885 265.958 29.7472 265.594C29.2059 265.23 28.7765 264.731 28.4592 264.096C28.1512 263.452 27.9972 262.719 27.9972 261.898C27.9972 261.077 28.1512 260.349 28.4592 259.714C28.7765 259.07 29.2059 258.566 29.7472 258.202C30.2885 257.829 30.8999 257.642 31.5812 257.642C32.2719 257.642 32.8832 257.829 33.4152 258.202C33.9565 258.566 34.3812 259.07 34.6892 259.714C35.0065 260.349 35.1652 261.077 35.1652 261.898ZM33.5972 261.898C33.5972 261.338 33.5132 260.848 33.3452 260.428C33.1772 259.999 32.9392 259.667 32.6312 259.434C32.3232 259.191 31.9732 259.07 31.5812 259.07C31.1799 259.07 30.8252 259.191 30.5172 259.434C30.2092 259.667 29.9665 259.999 29.7892 260.428C29.6212 260.848 29.5372 261.338 29.5372 261.898C29.5372 262.458 29.6212 262.948 29.7892 263.368C29.9665 263.788 30.2092 264.119 30.5172 264.362C30.8252 264.595 31.1799 264.712 31.5812 264.712C31.9732 264.712 32.3185 264.595 32.6172 264.362C32.9252 264.119 33.1632 263.788 33.3312 263.368C33.5085 262.948 33.5972 262.458 33.5972 261.898Z" fill="white"/>
<path d="M379.332 144.184L325.884 251.688C323.875 255.729 319.003 257.424 314.92 255.502C310.491 253.417 308.819 247.972 311.315 243.762L372.536 140.487C373.595 138.701 375.874 138.069 377.702 139.054C379.54 140.044 380.261 142.314 379.332 144.184Z" fill="white"/>
</svg>
