<svg width="686" height="581" viewBox="0 0 686 581" fill="none" xmlns="http://www.w3.org/2000/svg">
<path d="M212.411 79.77C210.495 76.4122 206.214 75.2358 202.907 77.2377C164.693 100.369 132.743 132.594 109.933 171.084C87.1234 209.575 74.1977 253.073 72.2565 297.7C72.0885 301.563 75.176 304.753 79.0414 304.821L235.03 307.581C238.895 307.649 242.059 304.567 242.394 300.715C243.709 285.573 248.413 270.887 256.192 257.76C263.972 244.633 274.595 233.455 287.246 225.03C290.464 222.887 291.649 218.632 289.733 215.274L212.411 79.77Z" fill="#E03C37"/>
<path d="M292.053 50.0517C291.301 46.2596 287.614 43.7859 283.843 44.6353C260.563 49.8789 238.075 58.169 216.962 69.2912C213.541 71.093 212.343 75.3675 214.232 78.7403L290.479 214.852C292.369 218.225 296.626 219.403 300.121 217.751C305.535 215.191 311.166 213.115 316.946 211.548C320.677 210.537 323.15 206.877 322.398 203.085L292.053 50.0517Z" fill="#CC6AC0"/>
<path d="M416.679 55.3248C417.749 51.6097 415.606 47.7216 411.865 46.7482C375.703 37.3394 337.988 35.4962 301.081 41.3342C297.263 41.9382 294.751 45.5988 295.453 49.4005L323.793 202.818C324.495 206.619 328.146 209.107 331.987 208.668C342.936 207.418 354.016 207.959 364.79 210.271C368.57 211.082 372.446 208.963 373.515 205.248L416.679 55.3248Z" fill="#99428E"/>
<path d="M526.424 118.453C529.098 115.661 529.008 111.222 526.147 108.621C497.789 82.8363 464.29 63.3472 427.858 51.4381C424.184 50.2369 420.28 52.352 419.174 56.0564L374.539 205.548C373.432 209.252 375.55 213.129 379.169 214.487C389.822 218.487 399.727 224.249 408.468 231.533C411.438 234.008 415.855 233.933 418.528 231.14L526.424 118.453Z" fill="#8F00FF"/>
<path d="M578.375 187.87C581.808 186.092 583.158 181.863 581.292 178.477C569.696 157.431 555.357 138.018 538.652 120.746C535.964 117.968 531.525 118.014 528.817 120.773L419.509 232.092C416.801 234.85 416.861 239.267 419.427 242.159C423.441 246.686 427.044 251.563 430.19 256.731C432.2 260.033 436.403 261.39 439.836 259.612L578.375 187.87Z" fill="#554BF9"/>
<path d="M604.148 264.523C607.958 263.866 610.522 260.242 609.767 256.451C605.471 234.887 598.571 213.925 589.219 194.026C587.575 190.527 583.359 189.135 579.904 190.869L440.463 260.842C437.008 262.576 435.637 266.775 437.128 270.342C439.169 275.221 440.825 280.253 442.082 285.391C443 289.146 446.598 291.71 450.407 291.052L604.148 264.523Z" fill="#3AA7A3"/>
<path d="M610 309.5C612.761 309.5 615.005 307.261 614.954 304.5C614.755 293.689 613.91 282.899 612.424 272.189C612.045 269.454 609.48 267.592 606.752 268.021L448.69 292.926C445.962 293.356 444.112 295.915 444.407 298.661C444.615 300.603 444.768 302.551 444.864 304.502C445 307.26 447.226 309.5 449.987 309.5H610Z" fill="#4DD09A"/>
<path d="M138.498 213.35L141.66 221.945L144.903 213.35H146.688L142.443 224H140.853L136.713 213.35H138.498ZM155.743 222.515L155.734 224H148.429L148.489 213.35H155.659L155.65 214.835H150.16L150.144 217.865H154.899L154.891 219.26H150.136L150.118 222.515H155.743ZM157.968 224L158.027 213.35H162.662C163.142 213.35 163.581 213.45 163.98 213.65C164.379 213.85 164.722 214.115 165.011 214.445C165.309 214.775 165.537 215.145 165.694 215.555C165.862 215.965 165.945 216.385 165.942 216.815C165.94 217.285 165.852 217.735 165.68 218.165C165.508 218.595 165.261 218.965 164.939 219.275C164.627 219.585 164.261 219.81 163.84 219.95L166.323 224H164.433L162.143 220.295H159.668L159.648 224H157.968ZM159.676 218.81H162.616C162.926 218.81 163.202 218.72 163.443 218.54C163.684 218.36 163.875 218.12 164.017 217.82C164.159 217.51 164.23 217.175 164.232 216.815C164.235 216.445 164.156 216.115 163.998 215.825C163.84 215.525 163.631 215.285 163.372 215.105C163.123 214.925 162.848 214.835 162.548 214.835H159.698L159.676 218.81ZM168.711 213.35L171.622 218.645L174.621 213.35H176.466L172.453 220.19L172.432 224H170.752L170.773 220.16L166.866 213.35H168.711ZM181.88 224L181.939 213.35H186.409C186.889 213.35 187.328 213.45 187.727 213.65C188.126 213.85 188.475 214.115 188.773 214.445C189.071 214.775 189.299 215.145 189.457 215.555C189.614 215.965 189.692 216.385 189.69 216.815C189.686 217.405 189.548 217.97 189.275 218.51C189.012 219.04 188.635 219.47 188.143 219.8C187.661 220.13 187.1 220.295 186.46 220.295H183.58L183.56 224H181.88ZM183.588 218.81H186.363C186.683 218.81 186.964 218.725 187.205 218.555C187.446 218.375 187.632 218.135 187.764 217.835C187.906 217.535 187.977 217.195 187.98 216.815C187.982 216.425 187.904 216.08 187.745 215.78C187.587 215.48 187.378 215.25 187.119 215.09C186.87 214.92 186.596 214.835 186.296 214.835H183.611L183.588 218.81ZM196.15 224.075C195.38 224.075 194.686 223.925 194.067 223.625C193.449 223.325 192.916 222.92 192.469 222.41C192.022 221.89 191.675 221.31 191.429 220.67C191.192 220.02 191.076 219.355 191.08 218.675C191.084 217.965 191.218 217.29 191.481 216.65C191.745 216 192.108 215.425 192.571 214.925C193.034 214.415 193.576 214.015 194.197 213.725C194.829 213.425 195.51 213.275 196.24 213.275C197 213.275 197.689 213.43 198.307 213.74C198.936 214.05 199.468 214.465 199.905 214.985C200.353 215.505 200.694 216.085 200.931 216.725C201.177 217.365 201.299 218.02 201.295 218.69C201.291 219.4 201.157 220.08 200.894 220.73C200.64 221.37 200.282 221.945 199.819 222.455C199.356 222.955 198.809 223.35 198.177 223.64C197.556 223.93 196.88 224.075 196.15 224.075ZM192.79 218.675C192.787 219.175 192.864 219.66 193.022 220.13C193.179 220.6 193.402 221.02 193.69 221.39C193.988 221.75 194.346 222.035 194.765 222.245C195.184 222.455 195.653 222.56 196.173 222.56C196.713 222.56 197.194 222.45 197.615 222.23C198.036 222.01 198.388 221.715 198.67 221.345C198.962 220.965 199.185 220.545 199.337 220.085C199.49 219.615 199.567 219.145 199.57 218.675C199.573 218.175 199.495 217.695 199.338 217.235C199.191 216.765 198.968 216.35 198.67 215.99C198.372 215.62 198.014 215.33 197.595 215.12C197.186 214.91 196.726 214.805 196.216 214.805C195.676 214.805 195.196 214.915 194.775 215.135C194.353 215.355 193.997 215.65 193.705 216.02C193.413 216.39 193.185 216.805 193.023 217.265C192.87 217.725 192.793 218.195 192.79 218.675ZM207.929 224.075C207.159 224.075 206.465 223.925 205.847 223.625C205.228 223.325 204.696 222.92 204.249 222.41C203.801 221.89 203.455 221.31 203.208 220.67C202.972 220.02 202.855 219.355 202.859 218.675C202.863 217.965 202.997 217.29 203.26 216.65C203.524 216 203.887 215.425 204.35 214.925C204.813 214.415 205.355 214.015 205.977 213.725C206.608 213.425 207.289 213.275 208.019 213.275C208.779 213.275 209.468 213.43 210.087 213.74C210.715 214.05 211.248 214.465 211.685 214.985C212.132 215.505 212.474 216.085 212.71 216.725C212.957 217.365 213.078 218.02 213.074 218.69C213.07 219.4 212.936 220.08 212.673 220.73C212.419 221.37 212.061 221.945 211.598 222.455C211.135 222.955 210.588 223.35 209.957 223.64C209.335 223.93 208.659 224.075 207.929 224.075ZM204.569 218.675C204.566 219.175 204.644 219.66 204.801 220.13C204.959 220.6 205.181 221.02 205.469 221.39C205.767 221.75 206.126 222.035 206.544 222.245C206.963 222.455 207.433 222.56 207.953 222.56C208.493 222.56 208.973 222.45 209.395 222.23C209.816 222.01 210.167 221.715 210.449 221.345C210.742 220.965 210.964 220.545 211.116 220.085C211.269 219.615 211.347 219.145 211.349 218.675C211.352 218.175 211.275 217.695 211.117 217.235C210.97 216.765 210.747 216.35 210.449 215.99C210.151 215.62 209.793 215.33 209.374 215.12C208.965 214.91 208.506 214.805 207.996 214.805C207.456 214.805 206.975 214.915 206.554 215.135C206.133 215.355 205.776 215.65 205.484 216.02C205.192 216.39 204.965 216.805 204.802 217.265C204.65 217.725 204.572 218.195 204.569 218.675ZM215.284 224L215.343 213.35H219.978C220.458 213.35 220.898 213.45 221.296 213.65C221.695 213.85 222.039 214.115 222.327 214.445C222.625 214.775 222.853 215.145 223.011 215.555C223.179 215.965 223.261 216.385 223.259 216.815C223.256 217.285 223.169 217.735 222.996 218.165C222.824 218.595 222.577 218.965 222.255 219.275C221.943 219.585 221.577 219.81 221.156 219.95L223.639 224H221.749L219.46 220.295H216.985L216.964 224H215.284ZM216.993 218.81H219.933C220.243 218.81 220.518 218.72 220.759 218.54C221 218.36 221.192 218.12 221.333 217.82C221.475 217.51 221.547 217.175 221.549 216.815C221.551 216.445 221.473 216.115 221.314 215.825C221.156 215.525 220.947 215.285 220.688 215.105C220.439 214.925 220.165 214.835 219.865 214.835H217.015L216.993 218.81Z" fill="white"/>
<path d="M338.609 113L338.668 102.35H345.763L345.755 103.835H340.34L340.322 107.015H344.852L344.844 108.41H340.314L340.289 113H338.609ZM350.139 102.35H351.729L355.809 113H354.039L352.931 110.105H348.821L347.694 113H345.909L350.139 102.35ZM352.607 108.86L350.923 104.195L349.127 108.86H352.607ZM357.627 113L357.686 102.35H359.366L359.307 113H357.627ZM362.213 113L362.273 102.35H366.908C367.388 102.35 367.827 102.45 368.226 102.65C368.625 102.85 368.968 103.115 369.257 103.445C369.555 103.775 369.783 104.145 369.94 104.555C370.108 104.965 370.191 105.385 370.188 105.815C370.186 106.285 370.098 106.735 369.926 107.165C369.753 107.595 369.506 107.965 369.185 108.275C368.873 108.585 368.507 108.81 368.086 108.95L370.568 113H368.678L366.389 109.295H363.914L363.893 113H362.213ZM363.922 107.81H366.862C367.172 107.81 367.448 107.72 367.689 107.54C367.93 107.36 368.121 107.12 368.263 106.82C368.405 106.51 368.476 106.175 368.478 105.815C368.48 105.445 368.402 105.115 368.244 104.825C368.086 104.525 367.877 104.285 367.618 104.105C367.369 103.925 367.094 103.835 366.794 103.835H363.944L363.922 107.81Z" fill="white"/>
<path d="M426.931 146.075C426.231 146.075 425.577 145.93 424.968 145.64C424.36 145.35 423.827 144.95 423.37 144.44C422.923 143.93 422.571 143.35 422.314 142.7C422.068 142.05 421.947 141.36 421.951 140.63C421.955 139.9 422.084 139.215 422.337 138.575C422.601 137.935 422.959 137.365 423.412 136.865C423.875 136.365 424.412 135.975 425.023 135.695C425.645 135.415 426.321 135.275 427.051 135.275C428.061 135.275 428.91 135.49 429.597 135.92C430.295 136.34 430.817 136.9 431.163 137.6L429.868 138.53C429.591 137.95 429.193 137.515 428.675 137.225C428.166 136.935 427.607 136.79 426.997 136.79C426.497 136.79 426.042 136.895 425.631 137.105C425.219 137.315 424.863 137.605 424.561 137.975C424.269 138.335 424.046 138.75 423.894 139.22C423.741 139.68 423.664 140.165 423.661 140.675C423.658 141.215 423.74 141.72 423.907 142.19C424.075 142.66 424.312 143.075 424.62 143.435C424.928 143.785 425.292 144.06 425.711 144.26C426.13 144.46 426.584 144.56 427.074 144.56C427.654 144.56 428.205 144.415 428.727 144.125C429.258 143.825 429.756 143.38 430.219 142.79L430.209 144.5C429.274 145.55 428.181 146.075 426.931 146.075ZM430.059 141.86H427.824L427.831 140.615H431.476L431.446 146H430.036L430.059 141.86ZM438.287 146.075C437.517 146.075 436.823 145.925 436.204 145.625C435.586 145.325 435.053 144.92 434.606 144.41C434.159 143.89 433.812 143.31 433.566 142.67C433.329 142.02 433.213 141.355 433.217 140.675C433.221 139.965 433.355 139.29 433.618 138.65C433.882 138 434.245 137.425 434.708 136.925C435.171 136.415 435.713 136.015 436.334 135.725C436.966 135.425 437.647 135.275 438.377 135.275C439.137 135.275 439.826 135.43 440.444 135.74C441.073 136.05 441.605 136.465 442.042 136.985C442.49 137.505 442.831 138.085 443.068 138.725C443.314 139.365 443.436 140.02 443.432 140.69C443.428 141.4 443.294 142.08 443.031 142.73C442.777 143.37 442.419 143.945 441.956 144.455C441.493 144.955 440.946 145.35 440.314 145.64C439.693 145.93 439.017 146.075 438.287 146.075ZM434.927 140.675C434.924 141.175 435.001 141.66 435.159 142.13C435.316 142.6 435.539 143.02 435.827 143.39C436.125 143.75 436.483 144.035 436.902 144.245C437.321 144.455 437.79 144.56 438.31 144.56C438.85 144.56 439.331 144.45 439.752 144.23C440.173 144.01 440.525 143.715 440.807 143.345C441.099 142.965 441.322 142.545 441.474 142.085C441.627 141.615 441.704 141.145 441.707 140.675C441.71 140.175 441.632 139.695 441.475 139.235C441.328 138.765 441.105 138.35 440.807 137.99C440.509 137.62 440.151 137.33 439.732 137.12C439.323 136.91 438.863 136.805 438.353 136.805C437.813 136.805 437.333 136.915 436.912 137.135C436.49 137.355 436.134 137.65 435.842 138.02C435.55 138.39 435.322 138.805 435.16 139.265C435.007 139.725 434.93 140.195 434.927 140.675ZM450.066 146.075C449.296 146.075 448.602 145.925 447.984 145.625C447.365 145.325 446.833 144.92 446.386 144.41C445.938 143.89 445.592 143.31 445.345 142.67C445.109 142.02 444.992 141.355 444.996 140.675C445 139.965 445.134 139.29 445.398 138.65C445.661 138 446.024 137.425 446.487 136.925C446.95 136.415 447.492 136.015 448.114 135.725C448.745 135.425 449.426 135.275 450.156 135.275C450.916 135.275 451.605 135.43 452.224 135.74C452.852 136.05 453.385 136.465 453.822 136.985C454.269 137.505 454.611 138.085 454.847 138.725C455.094 139.365 455.215 140.02 455.211 140.69C455.207 141.4 455.073 142.08 454.81 142.73C454.556 143.37 454.198 143.945 453.735 144.455C453.273 144.955 452.725 145.35 452.094 145.64C451.472 145.93 450.796 146.075 450.066 146.075ZM446.706 140.675C446.703 141.175 446.781 141.66 446.938 142.13C447.096 142.6 447.318 143.02 447.606 143.39C447.904 143.75 448.263 144.035 448.681 144.245C449.1 144.455 449.57 144.56 450.09 144.56C450.63 144.56 451.11 144.45 451.532 144.23C451.953 144.01 452.304 143.715 452.586 143.345C452.879 142.965 453.101 142.545 453.253 142.085C453.406 141.615 453.484 141.145 453.486 140.675C453.489 140.175 453.412 139.695 453.254 139.235C453.107 138.765 452.884 138.35 452.586 137.99C452.288 137.62 451.93 137.33 451.511 137.12C451.102 136.91 450.643 136.805 450.133 136.805C449.593 136.805 449.112 136.915 448.691 137.135C448.27 137.355 447.913 137.65 447.621 138.02C447.329 138.39 447.102 138.805 446.939 139.265C446.787 139.725 446.709 140.195 446.706 140.675ZM457.421 146L457.48 135.35H461.26C462.41 135.35 463.369 135.59 464.136 136.07C464.904 136.54 465.475 137.18 465.85 137.99C466.236 138.79 466.426 139.68 466.421 140.66C466.415 141.74 466.194 142.68 465.76 143.48C465.336 144.28 464.732 144.9 463.95 145.34C463.167 145.78 462.251 146 461.201 146H457.421ZM464.711 140.66C464.715 139.91 464.578 139.25 464.302 138.68C464.035 138.1 463.642 137.65 463.124 137.33C462.616 137 461.992 136.835 461.252 136.835H459.152L459.109 144.515H461.209C461.959 144.515 462.59 144.345 463.102 144.005C463.624 143.665 464.022 143.205 464.295 142.625C464.568 142.045 464.707 141.39 464.711 140.66Z" fill="white"/>
<path d="M494.099 176.35L497.261 184.945L500.504 176.35H502.289L498.045 187H496.455L492.314 176.35H494.099ZM511.344 185.515L511.336 187H504.031L504.09 176.35H511.26L511.252 177.835H505.762L505.745 180.865H510.5L510.492 182.26H505.737L505.719 185.515H511.344ZM513.569 187L513.628 176.35H518.263C518.743 176.35 519.182 176.45 519.581 176.65C519.98 176.85 520.324 177.115 520.612 177.445C520.91 177.775 521.138 178.145 521.296 178.555C521.463 178.965 521.546 179.385 521.544 179.815C521.541 180.285 521.454 180.735 521.281 181.165C521.109 181.595 520.862 181.965 520.54 182.275C520.228 182.585 519.862 182.81 519.441 182.95L521.924 187H520.034L517.744 183.295H515.269L515.249 187H513.569ZM515.278 181.81H518.218C518.528 181.81 518.803 181.72 519.044 181.54C519.285 181.36 519.476 181.12 519.618 180.82C519.76 180.51 519.832 180.175 519.834 179.815C519.836 179.445 519.758 179.115 519.599 178.825C519.441 178.525 519.232 178.285 518.973 178.105C518.724 177.925 518.45 177.835 518.15 177.835H515.3L515.278 181.81ZM524.312 176.35L527.223 181.645L530.222 176.35H532.067L528.054 183.19L528.033 187H526.353L526.374 183.16L522.467 176.35H524.312ZM494.781 205.075C494.081 205.075 493.427 204.93 492.818 204.64C492.21 204.35 491.677 203.95 491.22 203.44C490.773 202.93 490.421 202.35 490.165 201.7C489.918 201.05 489.797 200.36 489.801 199.63C489.805 198.9 489.934 198.215 490.187 197.575C490.451 196.935 490.809 196.365 491.262 195.865C491.725 195.365 492.262 194.975 492.873 194.695C493.495 194.415 494.171 194.275 494.901 194.275C495.911 194.275 496.76 194.49 497.447 194.92C498.145 195.34 498.667 195.9 499.013 196.6L497.718 197.53C497.441 196.95 497.043 196.515 496.525 196.225C496.017 195.935 495.457 195.79 494.847 195.79C494.347 195.79 493.892 195.895 493.481 196.105C493.069 196.315 492.713 196.605 492.411 196.975C492.119 197.335 491.897 197.75 491.744 198.22C491.591 198.68 491.514 199.165 491.511 199.675C491.508 200.215 491.59 200.72 491.757 201.19C491.925 201.66 492.162 202.075 492.471 202.435C492.779 202.785 493.142 203.06 493.561 203.26C493.98 203.46 494.434 203.56 494.924 203.56C495.504 203.56 496.055 203.415 496.577 203.125C497.108 202.825 497.606 202.38 498.069 201.79L498.06 203.5C497.124 204.55 496.031 205.075 494.781 205.075ZM497.909 200.86H495.674L495.681 199.615H499.326L499.296 205H497.886L497.909 200.86ZM506.137 205.075C505.367 205.075 504.673 204.925 504.055 204.625C503.436 204.325 502.904 203.92 502.456 203.41C502.009 202.89 501.662 202.31 501.416 201.67C501.18 201.02 501.063 200.355 501.067 199.675C501.071 198.965 501.205 198.29 501.468 197.65C501.732 197 502.095 196.425 502.558 195.925C503.021 195.415 503.563 195.015 504.185 194.725C504.816 194.425 505.497 194.275 506.227 194.275C506.987 194.275 507.676 194.43 508.294 194.74C508.923 195.05 509.455 195.465 509.893 195.985C510.34 196.505 510.681 197.085 510.918 197.725C511.164 198.365 511.286 199.02 511.282 199.69C511.278 200.4 511.144 201.08 510.881 201.73C510.627 202.37 510.269 202.945 509.806 203.455C509.343 203.955 508.796 204.35 508.165 204.64C507.543 204.93 506.867 205.075 506.137 205.075ZM502.777 199.675C502.774 200.175 502.852 200.66 503.009 201.13C503.166 201.6 503.389 202.02 503.677 202.39C503.975 202.75 504.333 203.035 504.752 203.245C505.171 203.455 505.641 203.56 506.161 203.56C506.701 203.56 507.181 203.45 507.602 203.23C508.024 203.01 508.375 202.715 508.657 202.345C508.949 201.965 509.172 201.545 509.324 201.085C509.477 200.615 509.554 200.145 509.557 199.675C509.56 199.175 509.483 198.695 509.325 198.235C509.178 197.765 508.955 197.35 508.657 196.99C508.359 196.62 508.001 196.33 507.582 196.12C507.173 195.91 506.714 195.805 506.204 195.805C505.664 195.805 505.183 195.915 504.762 196.135C504.341 196.355 503.984 196.65 503.692 197.02C503.4 197.39 503.172 197.805 503.01 198.265C502.857 198.725 502.78 199.195 502.777 199.675ZM517.916 205.075C517.146 205.075 516.452 204.925 515.834 204.625C515.216 204.325 514.683 203.92 514.236 203.41C513.789 202.89 513.442 202.31 513.195 201.67C512.959 201.02 512.843 200.355 512.846 199.675C512.85 198.965 512.984 198.29 513.248 197.65C513.511 197 513.874 196.425 514.337 195.925C514.8 195.415 515.342 195.015 515.964 194.725C516.596 194.425 517.276 194.275 518.006 194.275C518.766 194.275 519.455 194.43 520.074 194.74C520.702 195.05 521.235 195.465 521.672 195.985C522.119 196.505 522.461 197.085 522.697 197.725C522.944 198.365 523.065 199.02 523.061 199.69C523.057 200.4 522.924 201.08 522.66 201.73C522.406 202.37 522.048 202.945 521.585 203.455C521.123 203.955 520.575 204.35 519.944 204.64C519.322 204.93 518.646 205.075 517.916 205.075ZM514.556 199.675C514.554 200.175 514.631 200.66 514.788 201.13C514.946 201.6 515.168 202.02 515.456 202.39C515.754 202.75 516.113 203.035 516.532 203.245C516.95 203.455 517.42 203.56 517.94 203.56C518.48 203.56 518.96 203.45 519.382 203.23C519.803 203.01 520.154 202.715 520.437 202.345C520.729 201.965 520.951 201.545 521.104 201.085C521.256 200.615 521.334 200.145 521.336 199.675C521.339 199.175 521.262 198.695 521.104 198.235C520.957 197.765 520.734 197.35 520.436 196.99C520.138 196.62 519.78 196.33 519.361 196.12C518.952 195.91 518.493 195.805 517.983 195.805C517.443 195.805 516.962 195.915 516.541 196.135C516.12 196.355 515.763 196.65 515.471 197.02C515.179 197.39 514.952 197.805 514.789 198.265C514.637 198.725 514.559 199.195 514.556 199.675ZM525.271 205L525.33 194.35H529.11C530.26 194.35 531.219 194.59 531.986 195.07C532.754 195.54 533.325 196.18 533.701 196.99C534.086 197.79 534.276 198.68 534.271 199.66C534.265 200.74 534.045 201.68 533.61 202.48C533.186 203.28 532.582 203.9 531.8 204.34C531.017 204.78 530.101 205 529.051 205H525.271ZM532.561 199.66C532.565 198.91 532.429 198.25 532.152 197.68C531.885 197.1 531.492 196.65 530.974 196.33C530.466 196 529.842 195.835 529.102 195.835H527.002L526.959 203.515H529.059C529.809 203.515 530.44 203.345 530.952 203.005C531.474 202.665 531.872 202.205 532.145 201.625C532.418 201.045 532.557 200.39 532.561 199.66Z" fill="white"/>
<path d="M501.093 254.515L501.085 256H493.78L493.839 245.35H501.009L501.001 246.835H495.511L495.494 249.865H500.249L500.241 251.26H495.486L495.468 254.515H501.093ZM504.052 245.35L506.969 249.535L509.932 245.35H511.792L507.922 250.75L511.613 256H509.753L506.955 251.965L504.113 256H502.238L505.987 250.75L502.177 245.35H504.052ZM512.284 250.6C512.288 249.95 512.407 249.315 512.64 248.695C512.873 248.065 513.212 247.495 513.654 246.985C514.107 246.465 514.655 246.055 515.296 245.755C515.938 245.445 516.664 245.29 517.474 245.29C518.434 245.29 519.263 245.51 519.96 245.95C520.658 246.38 521.175 246.935 521.511 247.615L520.186 248.5C519.988 248.07 519.735 247.73 519.427 247.48C519.128 247.23 518.799 247.055 518.44 246.955C518.09 246.855 517.745 246.805 517.405 246.805C516.845 246.805 516.355 246.92 515.934 247.15C515.512 247.37 515.156 247.665 514.864 248.035C514.582 248.405 514.364 248.82 514.212 249.28C514.069 249.74 513.997 250.2 513.994 250.66C513.991 251.17 514.073 251.665 514.241 252.145C514.408 252.615 514.641 253.035 514.939 253.405C515.247 253.765 515.61 254.05 516.029 254.26C516.448 254.47 516.907 254.575 517.407 254.575C517.747 254.575 518.103 254.515 518.473 254.395C518.844 254.275 519.185 254.09 519.496 253.84C519.818 253.58 520.07 253.24 520.252 252.82L521.643 253.615C521.42 254.145 521.072 254.595 520.6 254.965C520.138 255.335 519.617 255.615 519.036 255.805C518.464 255.995 517.899 256.09 517.339 256.09C516.589 256.09 515.905 255.935 515.287 255.625C514.668 255.305 514.136 254.885 513.689 254.365C513.241 253.835 512.895 253.245 512.648 252.595C512.402 251.935 512.281 251.27 512.284 250.6ZM530.997 254.515L530.988 256H523.683L523.742 245.35H530.912L530.904 246.835H525.414L525.397 249.865H530.152L530.145 251.26H525.39L525.372 254.515H530.997ZM533.221 256L533.281 245.35H534.961L534.91 254.515H540.625L540.616 256H533.221ZM542.481 256L542.54 245.35H544.22L544.169 254.515H549.884L549.876 256H542.481ZM559.054 254.515L559.046 256H551.741L551.8 245.35H558.97L558.962 246.835H553.472L553.455 249.865H558.21L558.202 251.26H553.447L553.429 254.515H559.054ZM563.001 248.47L562.959 256H561.279L561.338 245.35H562.718L568.705 253.045L568.748 245.365H570.443L570.384 256H568.914L563.001 248.47ZM581.144 246.835H577.604L577.553 256H575.858L575.909 246.835H572.354L572.362 245.35H581.152L581.144 246.835Z" fill="white"/>
<path d="M502.075 298.515L502.067 300H494.762L494.821 289.35H501.991L501.983 290.835H496.493L496.476 293.865H501.231L501.223 295.26H496.468L496.45 298.515H502.075ZM505.034 289.35L507.951 293.535L510.914 289.35H512.774L508.904 294.75L512.595 300H510.735L507.937 295.965L505.095 300H503.22L506.969 294.75L503.159 289.35H505.034ZM513.266 294.6C513.27 293.95 513.388 293.315 513.622 292.695C513.855 292.065 514.194 291.495 514.636 290.985C515.089 290.465 515.637 290.055 516.278 289.755C516.92 289.445 517.646 289.29 518.456 289.29C519.416 289.29 520.245 289.51 520.942 289.95C521.64 290.38 522.157 290.935 522.493 291.615L521.168 292.5C520.97 292.07 520.717 291.73 520.409 291.48C520.11 291.23 519.781 291.055 519.422 290.955C519.072 290.855 518.727 290.805 518.387 290.805C517.827 290.805 517.337 290.92 516.915 291.15C516.494 291.37 516.138 291.665 515.846 292.035C515.564 292.405 515.346 292.82 515.194 293.28C515.051 293.74 514.979 294.2 514.976 294.66C514.973 295.17 515.055 295.665 515.223 296.145C515.39 296.615 515.623 297.035 515.921 297.405C516.229 297.765 516.592 298.05 517.011 298.26C517.43 298.47 517.889 298.575 518.389 298.575C518.729 298.575 519.085 298.515 519.455 298.395C519.826 298.275 520.167 298.09 520.478 297.84C520.8 297.58 521.052 297.24 521.234 296.82L522.625 297.615C522.402 298.145 522.054 298.595 521.582 298.965C521.12 299.335 520.598 299.615 520.017 299.805C519.446 299.995 518.881 300.09 518.321 300.09C517.571 300.09 516.887 299.935 516.268 299.625C515.65 299.305 515.118 298.885 514.67 298.365C514.223 297.835 513.877 297.245 513.63 296.595C513.384 295.935 513.263 295.27 513.266 294.6ZM531.979 298.515L531.97 300H524.665L524.724 289.35H531.894L531.886 290.835H526.396L526.379 293.865H531.134L531.127 295.26H526.372L526.354 298.515H531.979ZM534.203 300L534.262 289.35H538.732C539.212 289.35 539.652 289.45 540.051 289.65C540.45 289.85 540.798 290.115 541.096 290.445C541.395 290.775 541.623 291.145 541.78 291.555C541.938 291.965 542.016 292.385 542.013 292.815C542.01 293.405 541.872 293.97 541.599 294.51C541.336 295.04 540.959 295.47 540.467 295.8C539.985 296.13 539.424 296.295 538.784 296.295H535.904L535.883 300H534.203ZM535.912 294.81H538.687C539.007 294.81 539.288 294.725 539.529 294.555C539.77 294.375 539.956 294.135 540.088 293.835C540.229 293.535 540.301 293.195 540.303 292.815C540.305 292.425 540.227 292.08 540.069 291.78C539.911 291.48 539.702 291.25 539.443 291.09C539.194 290.92 538.919 290.835 538.619 290.835H535.934L535.912 294.81ZM551.915 290.835H548.375L548.324 300H546.629L546.68 290.835H543.125L543.133 289.35H551.923L551.915 290.835ZM553.792 300L553.851 289.35H555.531L555.472 300H553.792ZM562.804 300.075C562.034 300.075 561.34 299.925 560.721 299.625C560.103 299.325 559.57 298.92 559.123 298.41C558.676 297.89 558.329 297.31 558.083 296.67C557.846 296.02 557.73 295.355 557.734 294.675C557.738 293.965 557.871 293.29 558.135 292.65C558.399 292 558.762 291.425 559.225 290.925C559.687 290.415 560.23 290.015 560.851 289.725C561.483 289.425 562.164 289.275 562.894 289.275C563.654 289.275 564.343 289.43 564.961 289.74C565.589 290.05 566.122 290.465 566.559 290.985C567.006 291.505 567.348 292.085 567.585 292.725C567.831 293.365 567.952 294.02 567.949 294.69C567.945 295.4 567.811 296.08 567.547 296.73C567.294 297.37 566.936 297.945 566.473 298.455C566.01 298.955 565.463 299.35 564.831 299.64C564.21 299.93 563.534 300.075 562.804 300.075ZM559.444 294.675C559.441 295.175 559.518 295.66 559.676 296.13C559.833 296.6 560.056 297.02 560.344 297.39C560.642 297.75 561 298.035 561.419 298.245C561.838 298.455 562.307 298.56 562.827 298.56C563.367 298.56 563.848 298.45 564.269 298.23C564.69 298.01 565.042 297.715 565.324 297.345C565.616 296.965 565.838 296.545 565.991 296.085C566.143 295.615 566.221 295.145 566.224 294.675C566.226 294.175 566.149 293.695 565.992 293.235C565.844 292.765 565.622 292.35 565.324 291.99C565.026 291.62 564.667 291.33 564.248 291.12C563.84 290.91 563.38 290.805 562.87 290.805C562.33 290.805 561.85 290.915 561.428 291.135C561.007 291.355 560.65 291.65 560.358 292.02C560.066 292.39 559.839 292.805 559.677 293.265C559.524 293.725 559.446 294.195 559.444 294.675ZM571.88 292.47L571.838 300H570.158L570.218 289.35H571.598L577.585 297.045L577.627 289.365H579.322L579.263 300H577.793L571.88 292.47ZM585.292 289.35H586.882L590.962 300H589.192L588.084 297.105H583.974L582.847 300H581.062L585.292 289.35ZM587.76 295.86L586.076 291.195L584.28 295.86H587.76ZM592.78 300L592.839 289.35H594.519L594.468 298.515H600.183L600.175 300H592.78Z" fill="white"/>
<path d="M252.709 125L252.768 114.35H257.238C257.718 114.35 258.158 114.45 258.557 114.65C258.955 114.85 259.304 115.115 259.602 115.445C259.9 115.775 260.128 116.145 260.286 116.555C260.444 116.965 260.521 117.385 260.519 117.815C260.516 118.405 260.378 118.97 260.105 119.51C259.842 120.04 259.464 120.47 258.972 120.8C258.491 121.13 257.93 121.295 257.29 121.295H254.41L254.389 125H252.709ZM254.418 119.81H257.193C257.513 119.81 257.793 119.725 258.034 119.555C258.275 119.375 258.462 119.135 258.593 118.835C258.735 118.535 258.807 118.195 258.809 117.815C258.811 117.425 258.733 117.08 258.575 116.78C258.416 116.48 258.208 116.25 257.949 116.09C257.699 115.92 257.425 115.835 257.125 115.835H254.44L254.418 119.81ZM266.979 125.075C266.209 125.075 265.515 124.925 264.897 124.625C264.279 124.325 263.746 123.92 263.299 123.41C262.851 122.89 262.505 122.31 262.258 121.67C262.022 121.02 261.906 120.355 261.909 119.675C261.913 118.965 262.047 118.29 262.311 117.65C262.574 117 262.937 116.425 263.4 115.925C263.863 115.415 264.405 115.015 265.027 114.725C265.658 114.425 266.339 114.275 267.069 114.275C267.829 114.275 268.518 114.43 269.137 114.74C269.765 115.05 270.298 115.465 270.735 115.985C271.182 116.505 271.524 117.085 271.76 117.725C272.007 118.365 272.128 119.02 272.124 119.69C272.12 120.4 271.987 121.08 271.723 121.73C271.469 122.37 271.111 122.945 270.648 123.455C270.186 123.955 269.638 124.35 269.007 124.64C268.385 124.93 267.709 125.075 266.979 125.075ZM263.619 119.675C263.617 120.175 263.694 120.66 263.851 121.13C264.009 121.6 264.231 122.02 264.519 122.39C264.817 122.75 265.176 123.035 265.595 123.245C266.013 123.455 266.483 123.56 267.003 123.56C267.543 123.56 268.023 123.45 268.445 123.23C268.866 123.01 269.217 122.715 269.5 122.345C269.792 121.965 270.014 121.545 270.167 121.085C270.319 120.615 270.397 120.145 270.399 119.675C270.402 119.175 270.325 118.695 270.167 118.235C270.02 117.765 269.797 117.35 269.499 116.99C269.201 116.62 268.843 116.33 268.424 116.12C268.015 115.91 267.556 115.805 267.046 115.805C266.506 115.805 266.025 115.915 265.604 116.135C265.183 116.355 264.826 116.65 264.534 117.02C264.242 117.39 264.015 117.805 263.852 118.265C263.7 118.725 263.622 119.195 263.619 119.675ZM278.759 125.075C277.989 125.075 277.294 124.925 276.676 124.625C276.058 124.325 275.525 123.92 275.078 123.41C274.631 122.89 274.284 122.31 274.038 121.67C273.801 121.02 273.685 120.355 273.689 119.675C273.693 118.965 273.826 118.29 274.09 117.65C274.353 117 274.717 116.425 275.179 115.925C275.642 115.415 276.185 115.015 276.806 114.725C277.438 114.425 278.119 114.275 278.849 114.275C279.609 114.275 280.298 114.43 280.916 114.74C281.544 115.05 282.077 115.465 282.514 115.985C282.961 116.505 283.303 117.085 283.539 117.725C283.786 118.365 283.907 119.02 283.904 119.69C283.9 120.4 283.766 121.08 283.502 121.73C283.249 122.37 282.89 122.945 282.428 123.455C281.965 123.955 281.418 124.35 280.786 124.64C280.164 124.93 279.489 125.075 278.759 125.075ZM275.399 119.675C275.396 120.175 275.473 120.66 275.631 121.13C275.788 121.6 276.011 122.02 276.299 122.39C276.597 122.75 276.955 123.035 277.374 123.245C277.793 123.455 278.262 123.56 278.782 123.56C279.322 123.56 279.803 123.45 280.224 123.23C280.645 123.01 280.997 122.715 281.279 122.345C281.571 121.965 281.793 121.545 281.946 121.085C282.098 120.615 282.176 120.145 282.179 119.675C282.181 119.175 282.104 118.695 281.947 118.235C281.799 117.765 281.577 117.35 281.279 116.99C280.981 116.62 280.622 116.33 280.203 116.12C279.795 115.91 279.335 115.805 278.825 115.805C278.285 115.805 277.805 115.915 277.383 116.135C276.962 116.355 276.605 116.65 276.313 117.02C276.021 117.39 275.794 117.805 275.631 118.265C275.479 118.725 275.401 119.195 275.399 119.675ZM286.113 125L286.173 114.35H290.808C291.288 114.35 291.727 114.45 292.126 114.65C292.525 114.85 292.868 115.115 293.156 115.445C293.455 115.775 293.683 116.145 293.84 116.555C294.008 116.965 294.091 117.385 294.088 117.815C294.086 118.285 293.998 118.735 293.826 119.165C293.653 119.595 293.406 119.965 293.085 120.275C292.773 120.585 292.407 120.81 291.986 120.95L294.468 125H292.578L290.289 121.295H287.814L287.793 125H286.113ZM287.822 119.81H290.762C291.072 119.81 291.348 119.72 291.589 119.54C291.83 119.36 292.021 119.12 292.163 118.82C292.304 118.51 292.376 118.175 292.378 117.815C292.38 117.445 292.302 117.115 292.144 116.825C291.985 116.525 291.777 116.285 291.518 116.105C291.269 115.925 290.994 115.835 290.694 115.835H287.844L287.822 119.81Z" fill="white"/>
<rect y="282" width="52" height="27" rx="13.5" fill="#FF5757"/>
<rect x="635" y="290" width="51" height="27" rx="13.5" fill="#0DC076"/>
<path d="M647.476 302.45C647.476 303.075 647.625 303.64 647.924 304.144C648.232 304.639 648.647 305.035 649.17 305.334C649.693 305.633 650.276 305.782 650.92 305.782C651.275 305.782 651.601 305.726 651.9 305.614C652.208 305.502 652.479 305.343 652.712 305.138C652.945 304.933 653.127 304.695 653.258 304.424C653.249 305.143 653.146 305.754 652.95 306.258C652.763 306.762 652.497 307.145 652.152 307.406C651.807 307.677 651.401 307.812 650.934 307.812C650.486 307.812 650.071 307.695 649.688 307.462C649.305 307.229 649.007 306.921 648.792 306.538L647.882 307.49C648.209 308.013 648.638 308.419 649.17 308.708C649.702 309.007 650.281 309.156 650.906 309.156C651.671 309.156 652.339 308.941 652.908 308.512C653.477 308.083 653.916 307.443 654.224 306.594C654.541 305.745 654.7 304.685 654.7 303.416C654.7 302.492 654.546 301.703 654.238 301.05C653.939 300.387 653.519 299.883 652.978 299.538C652.437 299.183 651.802 299.006 651.074 299.006C650.402 299.006 649.791 299.16 649.24 299.468C648.699 299.776 648.269 300.191 647.952 300.714C647.635 301.237 647.476 301.815 647.476 302.45ZM651.06 300.322C651.443 300.322 651.793 300.42 652.11 300.616C652.427 300.803 652.684 301.059 652.88 301.386C653.076 301.713 653.174 302.067 653.174 302.45C653.174 302.833 653.076 303.183 652.88 303.5C652.693 303.817 652.441 304.074 652.124 304.27C651.807 304.457 651.452 304.55 651.06 304.55C650.677 304.55 650.323 304.457 649.996 304.27C649.679 304.074 649.422 303.817 649.226 303.5C649.039 303.183 648.946 302.833 648.946 302.45C648.946 302.058 649.039 301.703 649.226 301.386C649.422 301.059 649.679 300.803 649.996 300.616C650.323 300.42 650.677 300.322 651.06 300.322ZM663.626 302.898C663.626 303.719 663.467 304.452 663.15 305.096C662.842 305.731 662.417 306.23 661.876 306.594C661.344 306.958 660.733 307.14 660.042 307.14C659.361 307.14 658.749 306.958 658.208 306.594C657.667 306.23 657.237 305.731 656.92 305.096C656.612 304.452 656.458 303.719 656.458 302.898C656.458 302.077 656.612 301.349 656.92 300.714C657.237 300.07 657.667 299.566 658.208 299.202C658.749 298.829 659.361 298.642 660.042 298.642C660.733 298.642 661.344 298.829 661.876 299.202C662.417 299.566 662.842 300.07 663.15 300.714C663.467 301.349 663.626 302.077 663.626 302.898ZM662.058 302.898C662.058 302.338 661.974 301.848 661.806 301.428C661.638 300.999 661.4 300.667 661.092 300.434C660.784 300.191 660.434 300.07 660.042 300.07C659.641 300.07 659.286 300.191 658.978 300.434C658.67 300.667 658.427 300.999 658.25 301.428C658.082 301.848 657.998 302.338 657.998 302.898C657.998 303.458 658.082 303.948 658.25 304.368C658.427 304.788 658.67 305.119 658.978 305.362C659.286 305.595 659.641 305.712 660.042 305.712C660.434 305.712 660.779 305.595 661.078 305.362C661.386 305.119 661.624 304.788 661.792 304.368C661.969 303.948 662.058 303.458 662.058 302.898ZM672.726 302.898C672.726 303.719 672.567 304.452 672.25 305.096C671.942 305.731 671.517 306.23 670.976 306.594C670.444 306.958 669.832 307.14 669.142 307.14C668.46 307.14 667.849 306.958 667.308 306.594C666.766 306.23 666.337 305.731 666.02 305.096C665.712 304.452 665.558 303.719 665.558 302.898C665.558 302.077 665.712 301.349 666.02 300.714C666.337 300.07 666.766 299.566 667.308 299.202C667.849 298.829 668.46 298.642 669.142 298.642C669.832 298.642 670.444 298.829 670.976 299.202C671.517 299.566 671.942 300.07 672.25 300.714C672.567 301.349 672.726 302.077 672.726 302.898ZM671.158 302.898C671.158 302.338 671.074 301.848 670.906 301.428C670.738 300.999 670.5 300.667 670.192 300.434C669.884 300.191 669.534 300.07 669.142 300.07C668.74 300.07 668.386 300.191 668.078 300.434C667.77 300.667 667.527 300.999 667.35 301.428C667.182 301.848 667.098 302.338 667.098 302.898C667.098 303.458 667.182 303.948 667.35 304.368C667.527 304.788 667.77 305.119 668.078 305.362C668.386 305.595 668.74 305.712 669.142 305.712C669.534 305.712 669.879 305.595 670.178 305.362C670.486 305.119 670.724 304.788 670.892 304.368C671.069 303.948 671.158 303.458 671.158 302.898Z" fill="white"/>
<rect x="628" y="242" width="52" height="26" rx="13" fill="#4DD09A"/>
<rect x="134" y="52" width="53" height="25" rx="12.5" fill="#CC6AC0"/>
<rect x="262" width="51" height="26" rx="13" fill="#99428E"/>
<rect x="403" y="1" width="51" height="25" rx="12.5" fill="#8F00FF"/>
<rect x="539" y="77" width="50" height="26" rx="13" fill="#554BF9"/>
<path d="M649.756 256.13C649.756 256.727 649.593 257.25 649.266 257.698C648.949 258.146 648.515 258.496 647.964 258.748C647.423 258.991 646.83 259.112 646.186 259.112C645.523 259.112 644.926 258.981 644.394 258.72C643.862 258.449 643.437 258.085 643.12 257.628C642.803 257.171 642.644 256.648 642.644 256.06C642.644 255.668 642.733 255.318 642.91 255.01C643.087 254.693 643.307 254.422 643.568 254.198C643.829 253.974 644.095 253.801 644.366 253.68C644.114 253.559 643.881 253.405 643.666 253.218C643.461 253.022 643.293 252.798 643.162 252.546C643.041 252.294 642.98 252.023 642.98 251.734C642.98 251.305 643.073 250.927 643.26 250.6C643.456 250.264 643.713 249.984 644.03 249.76C644.347 249.527 644.693 249.354 645.066 249.242C645.449 249.121 645.827 249.06 646.2 249.06C646.583 249.06 646.961 249.121 647.334 249.242C647.717 249.354 648.067 249.522 648.384 249.746C648.711 249.97 648.967 250.25 649.154 250.586C649.35 250.913 649.448 251.291 649.448 251.72C649.448 252.009 649.383 252.285 649.252 252.546C649.131 252.798 648.958 253.022 648.734 253.218C648.519 253.414 648.286 253.568 648.034 253.68C648.333 253.811 648.613 253.993 648.874 254.226C649.145 254.459 649.359 254.735 649.518 255.052C649.677 255.369 649.756 255.729 649.756 256.13ZM648.202 256.032C648.202 255.761 648.141 255.519 648.02 255.304C647.908 255.089 647.754 254.912 647.558 254.772C647.362 254.623 647.147 254.511 646.914 254.436C646.681 254.361 646.443 254.324 646.2 254.324C645.855 254.324 645.533 254.394 645.234 254.534C644.935 254.674 644.693 254.875 644.506 255.136C644.319 255.388 644.226 255.687 644.226 256.032C644.226 256.293 644.282 256.531 644.394 256.746C644.506 256.951 644.655 257.129 644.842 257.278C645.038 257.427 645.253 257.539 645.486 257.614C645.729 257.689 645.971 257.726 646.214 257.726C646.55 257.726 646.867 257.656 647.166 257.516C647.474 257.367 647.721 257.166 647.908 256.914C648.104 256.653 648.202 256.359 648.202 256.032ZM644.534 251.79C644.534 252.079 644.618 252.327 644.786 252.532C644.954 252.737 645.169 252.891 645.43 252.994C645.691 253.097 645.948 253.148 646.2 253.148C646.461 253.148 646.718 253.097 646.97 252.994C647.231 252.882 647.446 252.723 647.614 252.518C647.791 252.313 647.88 252.061 647.88 251.762C647.88 251.491 647.801 251.258 647.642 251.062C647.483 250.857 647.273 250.703 647.012 250.6C646.76 250.488 646.489 250.432 646.2 250.432C645.911 250.432 645.635 250.488 645.374 250.6C645.122 250.712 644.917 250.871 644.758 251.076C644.609 251.272 644.534 251.51 644.534 251.79ZM656.116 252.252H651.3V250.838H658.552L653.582 260.778H651.832L656.116 252.252ZM666.96 254.898C666.96 255.719 666.801 256.452 666.484 257.096C666.176 257.731 665.751 258.23 665.21 258.594C664.678 258.958 664.067 259.14 663.376 259.14C662.695 259.14 662.083 258.958 661.542 258.594C661.001 258.23 660.571 257.731 660.254 257.096C659.946 256.452 659.792 255.719 659.792 254.898C659.792 254.077 659.946 253.349 660.254 252.714C660.571 252.07 661.001 251.566 661.542 251.202C662.083 250.829 662.695 250.642 663.376 250.642C664.067 250.642 664.678 250.829 665.21 251.202C665.751 251.566 666.176 252.07 666.484 252.714C666.801 253.349 666.96 254.077 666.96 254.898ZM665.392 254.898C665.392 254.338 665.308 253.848 665.14 253.428C664.972 252.999 664.734 252.667 664.426 252.434C664.118 252.191 663.768 252.07 663.376 252.07C662.975 252.07 662.62 252.191 662.312 252.434C662.004 252.667 661.761 252.999 661.584 253.428C661.416 253.848 661.332 254.338 661.332 254.898C661.332 255.458 661.416 255.948 661.584 256.368C661.761 256.788 662.004 257.119 662.312 257.362C662.62 257.595 662.975 257.712 663.376 257.712C663.768 257.712 664.113 257.595 664.412 257.362C664.72 257.119 664.958 256.788 665.126 256.368C665.303 255.948 665.392 255.458 665.392 254.898Z" fill="white"/>
<path d="M557.208 87.252H552.392V85.838H559.644L554.674 95.778H552.924L557.208 87.252ZM564.174 95.778V93.552H559.876V92.18L564.664 86.006H565.714V92.152H566.946V93.552H565.714V95.778H564.174ZM561.444 92.152H564.342V88.358L561.444 92.152ZM575.853 89.898C575.853 90.7193 575.694 91.452 575.377 92.096C575.069 92.7307 574.644 93.23 574.103 93.594C573.571 93.958 572.959 94.14 572.269 94.14C571.587 94.14 570.976 93.958 570.435 93.594C569.893 93.23 569.464 92.7307 569.147 92.096C568.839 91.452 568.685 90.7193 568.685 89.898C568.685 89.0767 568.839 88.3487 569.147 87.714C569.464 87.07 569.893 86.566 570.435 86.202C570.976 85.8287 571.587 85.642 572.269 85.642C572.959 85.642 573.571 85.8287 574.103 86.202C574.644 86.566 575.069 87.07 575.377 87.714C575.694 88.3487 575.853 89.0767 575.853 89.898ZM574.285 89.898C574.285 89.338 574.201 88.848 574.033 88.428C573.865 87.9987 573.627 87.6673 573.319 87.434C573.011 87.1913 572.661 87.07 572.269 87.07C571.867 87.07 571.513 87.1913 571.205 87.434C570.897 87.6673 570.654 87.9987 570.477 88.428C570.309 88.848 570.225 89.338 570.225 89.898C570.225 90.458 570.309 90.948 570.477 91.368C570.654 91.788 570.897 92.1193 571.205 92.362C571.513 92.5953 571.867 92.712 572.269 92.712C572.661 92.712 573.006 92.5953 573.305 92.362C573.613 92.1193 573.851 91.788 574.019 91.368C574.196 90.948 574.285 90.458 574.285 89.898Z" fill="white"/>
<path d="M423.896 14.696C423.896 14.0707 423.742 13.5107 423.434 13.016C423.135 12.512 422.725 12.1107 422.202 11.812C421.689 11.5133 421.105 11.364 420.452 11.364C420.107 11.364 419.78 11.42 419.472 11.532C419.164 11.644 418.893 11.8027 418.66 12.008C418.436 12.204 418.254 12.442 418.114 12.722C418.123 12.0033 418.221 11.392 418.408 10.888C418.604 10.384 418.875 10.0013 419.22 9.74C419.575 9.46933 419.981 9.334 420.438 9.334C420.895 9.334 421.311 9.45067 421.684 9.684C422.067 9.908 422.365 10.216 422.58 10.608L423.49 9.656C423.163 9.13333 422.734 8.72733 422.202 8.438C421.679 8.13933 421.101 7.99 420.466 7.99C419.701 7.99 419.033 8.20467 418.464 8.634C417.895 9.06333 417.451 9.70267 417.134 10.552C416.826 11.4013 416.672 12.4607 416.672 13.73C416.672 14.6447 416.821 15.4333 417.12 16.096C417.428 16.7587 417.853 17.2673 418.394 17.622C418.945 17.9673 419.584 18.14 420.312 18.14C420.984 18.14 421.591 17.986 422.132 17.678C422.683 17.37 423.112 16.9547 423.42 16.432C423.737 15.9093 423.896 15.3307 423.896 14.696ZM420.312 16.824C419.939 16.824 419.589 16.726 419.262 16.53C418.945 16.334 418.688 16.0773 418.492 15.76C418.296 15.4333 418.198 15.0787 418.198 14.696C418.198 14.3133 418.291 13.9633 418.478 13.646C418.674 13.3287 418.935 13.0767 419.262 12.89C419.589 12.694 419.939 12.596 420.312 12.596C420.704 12.596 421.059 12.694 421.376 12.89C421.693 13.0767 421.945 13.3287 422.132 13.646C422.328 13.9633 422.426 14.3133 422.426 14.696C422.426 15.0787 422.328 15.4333 422.132 15.76C421.945 16.0867 421.689 16.348 421.362 16.544C421.045 16.7307 420.695 16.824 420.312 16.824ZM428.672 20.086C427.953 20.086 427.309 19.9227 426.74 19.596C426.171 19.2787 425.737 18.8447 425.438 18.294L426.362 17.412C426.623 17.8133 426.959 18.1307 427.37 18.364C427.781 18.6067 428.219 18.728 428.686 18.728C429.069 18.728 429.409 18.644 429.708 18.476C430.007 18.3173 430.24 18.0933 430.408 17.804C430.585 17.5053 430.674 17.1647 430.674 16.782C430.674 16.4087 430.59 16.082 430.422 15.802C430.254 15.5127 430.03 15.2933 429.75 15.144C429.47 14.9853 429.148 14.906 428.784 14.906C428.429 14.906 428.098 14.9853 427.79 15.144C427.482 15.3027 427.23 15.5267 427.034 15.816H425.676L426.81 10.006H431.668V11.42H427.93L427.426 14.136C427.585 13.968 427.799 13.8327 428.07 13.73C428.341 13.618 428.649 13.562 428.994 13.562C429.619 13.562 430.175 13.702 430.66 13.982C431.155 14.2527 431.542 14.626 431.822 15.102C432.111 15.578 432.256 16.1287 432.256 16.754C432.256 17.4167 432.097 17.9953 431.78 18.49C431.463 18.994 431.033 19.386 430.492 19.666C429.951 19.946 429.344 20.086 428.672 20.086ZM441.097 13.898C441.097 14.7193 440.938 15.452 440.621 16.096C440.313 16.7307 439.888 17.23 439.347 17.594C438.815 17.958 438.204 18.14 437.513 18.14C436.832 18.14 436.22 17.958 435.679 17.594C435.138 17.23 434.708 16.7307 434.391 16.096C434.083 15.452 433.929 14.7193 433.929 13.898C433.929 13.0767 434.083 12.3487 434.391 11.714C434.708 11.07 435.138 10.566 435.679 10.202C436.22 9.82867 436.832 9.642 437.513 9.642C438.204 9.642 438.815 9.82867 439.347 10.202C439.888 10.566 440.313 11.07 440.621 11.714C440.938 12.3487 441.097 13.0767 441.097 13.898ZM439.529 13.898C439.529 13.338 439.445 12.848 439.277 12.428C439.109 11.9987 438.871 11.6673 438.563 11.434C438.255 11.1913 437.905 11.07 437.513 11.07C437.112 11.07 436.757 11.1913 436.449 11.434C436.141 11.6673 435.898 11.9987 435.721 12.428C435.553 12.848 435.469 13.338 435.469 13.898C435.469 14.458 435.553 14.948 435.721 15.368C435.898 15.788 436.141 16.1193 436.449 16.362C436.757 16.5953 437.112 16.712 437.513 16.712C437.905 16.712 438.25 16.5953 438.549 16.362C438.857 16.1193 439.095 15.788 439.263 15.368C439.44 14.948 439.529 14.458 439.529 13.898Z" fill="white"/>
<path d="M278.668 20.086C277.949 20.086 277.305 19.9227 276.736 19.596C276.167 19.2787 275.733 18.8447 275.434 18.294L276.358 17.412C276.619 17.8133 276.955 18.1307 277.366 18.364C277.777 18.6067 278.215 18.728 278.682 18.728C279.065 18.728 279.405 18.644 279.704 18.476C280.003 18.3173 280.236 18.0933 280.404 17.804C280.581 17.5053 280.67 17.1647 280.67 16.782C280.67 16.4087 280.586 16.082 280.418 15.802C280.25 15.5127 280.026 15.2933 279.746 15.144C279.466 14.9853 279.144 14.906 278.78 14.906C278.425 14.906 278.094 14.9853 277.786 15.144C277.478 15.3027 277.226 15.5267 277.03 15.816H275.672L276.806 10.006H281.664V11.42H277.926L277.422 14.136C277.581 13.968 277.795 13.8327 278.066 13.73C278.337 13.618 278.645 13.562 278.99 13.562C279.615 13.562 280.171 13.702 280.656 13.982C281.151 14.2527 281.538 14.626 281.818 15.102C282.107 15.578 282.252 16.1287 282.252 16.754C282.252 17.4167 282.093 17.9953 281.776 18.49C281.459 18.994 281.029 19.386 280.488 19.666C279.947 19.946 279.34 20.086 278.668 20.086ZM291.107 14.696C291.107 14.0707 290.953 13.5107 290.645 13.016C290.346 12.512 289.936 12.1107 289.413 11.812C288.9 11.5133 288.316 11.364 287.663 11.364C287.318 11.364 286.991 11.42 286.683 11.532C286.375 11.644 286.104 11.8027 285.871 12.008C285.647 12.204 285.465 12.442 285.325 12.722C285.334 12.0033 285.432 11.392 285.619 10.888C285.815 10.384 286.086 10.0013 286.431 9.74C286.786 9.46933 287.192 9.334 287.649 9.334C288.106 9.334 288.522 9.45067 288.895 9.684C289.278 9.908 289.576 10.216 289.791 10.608L290.701 9.656C290.374 9.13333 289.945 8.72733 289.413 8.438C288.89 8.13933 288.312 7.99 287.677 7.99C286.912 7.99 286.244 8.20467 285.675 8.634C285.106 9.06333 284.662 9.70267 284.345 10.552C284.037 11.4013 283.883 12.4607 283.883 13.73C283.883 14.6447 284.032 15.4333 284.331 16.096C284.639 16.7587 285.064 17.2673 285.605 17.622C286.156 17.9673 286.795 18.14 287.523 18.14C288.195 18.14 288.802 17.986 289.343 17.678C289.894 17.37 290.323 16.9547 290.631 16.432C290.948 15.9093 291.107 15.3307 291.107 14.696ZM287.523 16.824C287.15 16.824 286.8 16.726 286.473 16.53C286.156 16.334 285.899 16.0773 285.703 15.76C285.507 15.4333 285.409 15.0787 285.409 14.696C285.409 14.3133 285.502 13.9633 285.689 13.646C285.885 13.3287 286.146 13.0767 286.473 12.89C286.8 12.694 287.15 12.596 287.523 12.596C287.915 12.596 288.27 12.694 288.587 12.89C288.904 13.0767 289.156 13.3287 289.343 13.646C289.539 13.9633 289.637 14.3133 289.637 14.696C289.637 15.0787 289.539 15.4333 289.343 15.76C289.156 16.0867 288.9 16.348 288.573 16.544C288.256 16.7307 287.906 16.824 287.523 16.824ZM300.097 13.898C300.097 14.7193 299.938 15.452 299.621 16.096C299.313 16.7307 298.888 17.23 298.347 17.594C297.815 17.958 297.204 18.14 296.513 18.14C295.832 18.14 295.22 17.958 294.679 17.594C294.138 17.23 293.708 16.7307 293.391 16.096C293.083 15.452 292.929 14.7193 292.929 13.898C292.929 13.0767 293.083 12.3487 293.391 11.714C293.708 11.07 294.138 10.566 294.679 10.202C295.22 9.82867 295.832 9.642 296.513 9.642C297.204 9.642 297.815 9.82867 298.347 10.202C298.888 10.566 299.313 11.07 299.621 11.714C299.938 12.3487 300.097 13.0767 300.097 13.898ZM298.529 13.898C298.529 13.338 298.445 12.848 298.277 12.428C298.109 11.9987 297.871 11.6673 297.563 11.434C297.255 11.1913 296.905 11.07 296.513 11.07C296.112 11.07 295.757 11.1913 295.449 11.434C295.141 11.6673 294.898 11.9987 294.721 12.428C294.553 12.848 294.469 13.338 294.469 13.898C294.469 14.458 294.553 14.948 294.721 15.368C294.898 15.788 295.141 16.1193 295.449 16.362C295.757 16.5953 296.112 16.712 296.513 16.712C296.905 16.712 297.25 16.5953 297.549 16.362C297.857 16.1193 298.095 15.788 298.263 15.368C298.44 14.948 298.529 14.458 298.529 13.898Z" fill="white"/>
<path d="M150.668 70.086C149.949 70.086 149.305 69.9227 148.736 69.596C148.167 69.2787 147.733 68.8447 147.434 68.294L148.358 67.412C148.619 67.8133 148.955 68.1307 149.366 68.364C149.777 68.6067 150.215 68.728 150.682 68.728C151.065 68.728 151.405 68.644 151.704 68.476C152.003 68.3173 152.236 68.0933 152.404 67.804C152.581 67.5053 152.67 67.1647 152.67 66.782C152.67 66.4087 152.586 66.082 152.418 65.802C152.25 65.5127 152.026 65.2933 151.746 65.144C151.466 64.9853 151.144 64.906 150.78 64.906C150.425 64.906 150.094 64.9853 149.786 65.144C149.478 65.3027 149.226 65.5267 149.03 65.816H147.672L148.806 60.006H153.664V61.42H149.926L149.422 64.136C149.581 63.968 149.795 63.8327 150.066 63.73C150.337 63.618 150.645 63.562 150.99 63.562C151.615 63.562 152.171 63.702 152.656 63.982C153.151 64.2527 153.538 64.626 153.818 65.102C154.107 65.578 154.252 66.1287 154.252 66.754C154.252 67.4167 154.093 67.9953 153.776 68.49C153.459 68.994 153.029 69.386 152.488 69.666C151.947 69.946 151.34 70.086 150.668 70.086ZM163.093 63.898C163.093 64.7193 162.934 65.452 162.617 66.096C162.309 66.7307 161.884 67.23 161.343 67.594C160.811 67.958 160.2 68.14 159.509 68.14C158.828 68.14 158.216 67.958 157.675 67.594C157.134 67.23 156.704 66.7307 156.387 66.096C156.079 65.452 155.925 64.7193 155.925 63.898C155.925 63.0767 156.079 62.3487 156.387 61.714C156.704 61.07 157.134 60.566 157.675 60.202C158.216 59.8287 158.828 59.642 159.509 59.642C160.2 59.642 160.811 59.8287 161.343 60.202C161.884 60.566 162.309 61.07 162.617 61.714C162.934 62.3487 163.093 63.0767 163.093 63.898ZM161.525 63.898C161.525 63.338 161.441 62.848 161.273 62.428C161.105 61.9987 160.867 61.6673 160.559 61.434C160.251 61.1913 159.901 61.07 159.509 61.07C159.108 61.07 158.753 61.1913 158.445 61.434C158.137 61.6673 157.894 61.9987 157.717 62.428C157.549 62.848 157.465 63.338 157.465 63.898C157.465 64.458 157.549 64.948 157.717 65.368C157.894 65.788 158.137 66.1193 158.445 66.362C158.753 66.5953 159.108 66.712 159.509 66.712C159.901 66.712 160.246 66.5953 160.545 66.362C160.853 66.1193 161.091 65.788 161.259 65.368C161.436 64.948 161.525 64.458 161.525 63.898ZM172.193 63.898C172.193 64.7193 172.034 65.452 171.717 66.096C171.409 66.7307 170.984 67.23 170.443 67.594C169.911 67.958 169.299 68.14 168.609 68.14C167.927 68.14 167.316 67.958 166.775 67.594C166.233 67.23 165.804 66.7307 165.487 66.096C165.179 65.452 165.025 64.7193 165.025 63.898C165.025 63.0767 165.179 62.3487 165.487 61.714C165.804 61.07 166.233 60.566 166.775 60.202C167.316 59.8287 167.927 59.642 168.609 59.642C169.299 59.642 169.911 59.8287 170.443 60.202C170.984 60.566 171.409 61.07 171.717 61.714C172.034 62.3487 172.193 63.0767 172.193 63.898ZM170.625 63.898C170.625 63.338 170.541 62.848 170.373 62.428C170.205 61.9987 169.967 61.6673 169.659 61.434C169.351 61.1913 169.001 61.07 168.609 61.07C168.207 61.07 167.853 61.1913 167.545 61.434C167.237 61.6673 166.994 61.9987 166.817 62.428C166.649 62.848 166.565 63.338 166.565 63.898C166.565 64.458 166.649 64.948 166.817 65.368C166.994 65.788 167.237 66.1193 167.545 66.362C167.853 66.5953 168.207 66.712 168.609 66.712C169.001 66.712 169.346 66.5953 169.645 66.362C169.953 66.1193 170.191 65.788 170.359 65.368C170.536 64.948 170.625 64.458 170.625 63.898Z" fill="white"/>
<path d="M18.166 296.696C18.558 296.761 18.8987 296.911 19.188 297.144C19.4867 297.368 19.7153 297.657 19.874 298.012C20.0327 298.357 20.112 298.749 20.112 299.188C20.112 299.767 19.9673 300.271 19.678 300.7C19.398 301.129 18.9967 301.461 18.474 301.694C17.9513 301.937 17.3353 302.058 16.626 302.058C15.9167 302.058 15.2913 301.932 14.75 301.68C14.2087 301.437 13.7747 301.083 13.448 300.616L14.386 299.552C14.61 299.888 14.8993 300.154 15.254 300.35C15.6087 300.555 16.0567 300.658 16.598 300.658C17.2047 300.658 17.676 300.527 18.012 300.266C18.348 300.005 18.516 299.613 18.516 299.09C18.516 298.549 18.3293 298.124 17.956 297.816C17.592 297.508 17.0413 297.354 16.304 297.354H15.926V296.15H16.346C16.9713 296.15 17.452 296.005 17.788 295.716C18.124 295.417 18.292 295.044 18.292 294.596C18.292 294.297 18.222 294.055 18.082 293.868C17.9513 293.672 17.7647 293.527 17.522 293.434C17.2793 293.341 16.9993 293.294 16.682 293.294C16.206 293.294 15.786 293.397 15.422 293.602C15.058 293.807 14.7687 294.101 14.554 294.484L13.588 293.434C13.7747 293.135 14.0313 292.874 14.358 292.65C14.6847 292.426 15.058 292.253 15.478 292.132C15.9073 292.001 16.36 291.936 16.836 291.936C17.452 291.936 17.9933 292.039 18.46 292.244C18.9267 292.449 19.286 292.739 19.538 293.112C19.7993 293.485 19.93 293.924 19.93 294.428C19.93 294.792 19.86 295.137 19.72 295.464C19.58 295.781 19.3747 296.052 19.104 296.276C18.8333 296.491 18.5207 296.631 18.166 296.696ZM29.0656 295.898C29.0656 296.719 28.9069 297.452 28.5896 298.096C28.2816 298.731 27.8569 299.23 27.3156 299.594C26.7836 299.958 26.1723 300.14 25.4816 300.14C24.8003 300.14 24.1889 299.958 23.6476 299.594C23.1063 299.23 22.6769 298.731 22.3596 298.096C22.0516 297.452 21.8976 296.719 21.8976 295.898C21.8976 295.077 22.0516 294.349 22.3596 293.714C22.6769 293.07 23.1063 292.566 23.6476 292.202C24.1889 291.829 24.8003 291.642 25.4816 291.642C26.1723 291.642 26.7836 291.829 27.3156 292.202C27.8569 292.566 28.2816 293.07 28.5896 293.714C28.9069 294.349 29.0656 295.077 29.0656 295.898ZM27.4976 295.898C27.4976 295.338 27.4136 294.848 27.2456 294.428C27.0776 293.999 26.8396 293.667 26.5316 293.434C26.2236 293.191 25.8736 293.07 25.4816 293.07C25.0803 293.07 24.7256 293.191 24.4176 293.434C24.1096 293.667 23.8669 293.999 23.6896 294.428C23.5216 294.848 23.4376 295.338 23.4376 295.898C23.4376 296.458 23.5216 296.948 23.6896 297.368C23.8669 297.788 24.1096 298.119 24.4176 298.362C24.7256 298.595 25.0803 298.712 25.4816 298.712C25.8736 298.712 26.2189 298.595 26.5176 298.362C26.8256 298.119 27.0636 297.788 27.2316 297.368C27.4089 296.948 27.4976 296.458 27.4976 295.898ZM38.1652 295.898C38.1652 296.719 38.0065 297.452 37.6892 298.096C37.3812 298.731 36.9565 299.23 36.4152 299.594C35.8832 299.958 35.2719 300.14 34.5812 300.14C33.8999 300.14 33.2885 299.958 32.7472 299.594C32.2059 299.23 31.7765 298.731 31.4592 298.096C31.1512 297.452 30.9972 296.719 30.9972 295.898C30.9972 295.077 31.1512 294.349 31.4592 293.714C31.7765 293.07 32.2059 292.566 32.7472 292.202C33.2885 291.829 33.8999 291.642 34.5812 291.642C35.2719 291.642 35.8832 291.829 36.4152 292.202C36.9565 292.566 37.3812 293.07 37.6892 293.714C38.0065 294.349 38.1652 295.077 38.1652 295.898ZM36.5972 295.898C36.5972 295.338 36.5132 294.848 36.3452 294.428C36.1772 293.999 35.9392 293.667 35.6312 293.434C35.3232 293.191 34.9732 293.07 34.5812 293.07C34.1799 293.07 33.8252 293.191 33.5172 293.434C33.2092 293.667 32.9665 293.999 32.7892 294.428C32.6212 294.848 32.5372 295.338 32.5372 295.898C32.5372 296.458 32.6212 296.948 32.7892 297.368C32.9665 297.788 33.2092 298.119 33.5172 298.362C33.8252 298.595 34.1799 298.712 34.5812 298.712C34.9732 298.712 35.3185 298.595 35.6172 298.362C35.9252 298.119 36.1632 297.788 36.3312 297.368C36.5085 296.948 36.5972 296.458 36.5972 295.898Z" fill="white"/>
</svg>
